<svg width="339" height="308" viewBox="0 0 339 308" fill="none" xmlns="http://www.w3.org/2000/svg">
<path d="M230.572 19.9728H108.428C105.979 19.9728 103.629 18.9206 101.898 17.0478C100.166 15.175 99.1926 12.635 99.1926 9.98639C99.1926 7.33784 100.166 4.79776 101.898 2.92494C103.629 1.05213 105.979 0 108.428 0H230.572C233.022 0 235.371 1.05213 237.103 2.92494C238.835 4.79776 239.808 7.33784 239.808 9.98639C239.808 12.635 238.835 15.175 237.103 17.0478C235.371 18.9206 233.022 19.9728 230.572 19.9728Z" fill="#F95A61"/>
<path d="M337.565 35.9417H1.43501C1.05154 35.9325 0.686634 35.7614 0.418426 35.4649C0.150217 35.1684 3.05176e-05 34.7701 3.05176e-05 34.3554C3.05176e-05 33.9406 0.150217 33.5423 0.418426 33.2458C0.686634 32.9494 1.05154 32.7782 1.43501 32.769H337.565C337.948 32.7782 338.313 32.9494 338.582 33.2458C338.85 33.5423 339 33.9406 339 34.3554C339 34.7701 338.85 35.1684 338.582 35.4649C338.313 35.7614 337.948 35.9325 337.565 35.9417Z" fill="#E6E6E6"/>
<path d="M18.2212 15.6495C21.004 15.6495 23.2599 13.1558 23.2599 10.0796C23.2599 7.00348 21.004 4.50977 18.2212 4.50977C15.4384 4.50977 13.1826 7.00348 13.1826 10.0796C13.1826 13.1558 15.4384 15.6495 18.2212 15.6495Z" fill="#3F3D56"/>
<path d="M35.6276 15.6495C38.4104 15.6495 40.6663 13.1558 40.6663 10.0796C40.6663 7.00348 38.4104 4.50977 35.6276 4.50977C32.8448 4.50977 30.5889 7.00348 30.5889 10.0796C30.5889 13.1558 32.8448 15.6495 35.6276 15.6495Z" fill="#3F3D56"/>
<path d="M53.0339 15.6495C55.8167 15.6495 58.0726 13.1558 58.0726 10.0796C58.0726 7.00348 55.8167 4.50977 53.0339 4.50977C50.2511 4.50977 47.9952 7.00348 47.9952 10.0796C47.9952 13.1558 50.2511 15.6495 53.0339 15.6495Z" fill="#3F3D56"/>
<path d="M72.8818 14.4823C72.8024 14.4824 72.7238 14.4653 72.6507 14.432C72.5775 14.3987 72.5113 14.3499 72.4558 14.2885L69.056 10.5304C68.9471 10.41 68.886 10.2483 68.886 10.0799C68.886 9.91146 68.9471 9.74974 69.056 9.62939L72.4558 5.87159C72.5667 5.75131 72.717 5.68322 72.8741 5.68214C73.0311 5.68106 73.1822 5.74707 73.2945 5.86582C73.4068 5.98458 73.4711 6.14646 73.4736 6.31627C73.4761 6.48608 73.4165 6.65007 73.3077 6.77258L70.3154 10.0799L73.3077 13.3875C73.3897 13.4782 73.4451 13.593 73.467 13.7176C73.489 13.8421 73.4764 13.9709 73.4309 14.0878C73.3855 14.2047 73.3091 14.3045 73.2114 14.3747C73.1137 14.4448 72.999 14.4823 72.8818 14.4823V14.4823Z" fill="#3F3D56"/>
<path d="M78.5947 14.4823C78.4775 14.4823 78.3628 14.4448 78.2651 14.3747C78.1674 14.3045 78.0911 14.2047 78.0456 14.0878C78.0001 13.9709 77.9875 13.8421 78.0095 13.7176C78.0314 13.593 78.0868 13.4782 78.1688 13.3875L81.1608 10.0799L78.1688 6.77259C78.0601 6.65007 78.0004 6.48608 78.0029 6.31627C78.0054 6.14646 78.0698 5.98458 78.182 5.86582C78.2943 5.74707 78.4454 5.68106 78.6024 5.68214C78.7595 5.68322 78.9098 5.75131 79.0207 5.87159L82.4202 9.62939C82.5292 9.74974 82.5902 9.91146 82.5902 10.0799C82.5902 10.2483 82.5292 10.41 82.4202 10.5304L79.0207 14.2885C78.9653 14.3499 78.899 14.3987 78.8259 14.432C78.7527 14.4653 78.6741 14.4824 78.5947 14.4823Z" fill="#E6E6E6"/>
<path d="M302.565 5.1543C302.219 5.15476 301.887 5.30376 301.642 5.56861C301.397 5.83347 301.259 6.19255 301.259 6.56712V13.4057C301.259 13.7803 301.397 14.1394 301.642 14.4042C301.887 14.6691 302.219 14.8181 302.565 14.8185H308.89C309.236 14.8181 309.568 14.6691 309.813 14.4042C310.058 14.1394 310.196 13.7803 310.196 13.4057V6.56712C310.196 6.19255 310.058 5.83347 309.813 5.56861C309.568 5.30376 309.236 5.15476 308.89 5.1543H302.565Z" fill="#E6E6E6"/>
<path d="M287.074 5.1543C286.727 5.15476 286.395 5.30376 286.15 5.56861C285.905 5.83347 285.768 6.19255 285.767 6.56712V13.4057C285.768 13.7803 285.905 14.1394 286.15 14.4042C286.395 14.6691 286.727 14.8181 287.074 14.8185H293.398C293.744 14.8181 294.077 14.6691 294.321 14.4042C294.566 14.1394 294.704 13.7803 294.705 13.4057V6.56712C294.704 6.19255 294.566 5.83347 294.321 5.56861C294.077 5.30376 293.744 5.15476 293.398 5.1543H287.074Z" fill="#E6E6E6"/>
<path d="M317.163 5.47656C316.817 5.47702 316.485 5.62602 316.24 5.89088C315.995 6.15574 315.857 6.51482 315.857 6.88938V13.728C315.857 14.1025 315.995 14.4616 316.24 14.7265C316.485 14.9914 316.817 15.1404 317.163 15.1408H323.487C323.834 15.1404 324.166 14.9914 324.411 14.7265C324.656 14.4616 324.794 14.1025 324.794 13.728V6.88938C324.794 6.51482 324.656 6.15574 324.411 5.89088C324.166 5.62602 323.834 5.47702 323.487 5.47656H317.163Z" fill="#E6E6E6"/>
<path d="M244.872 150.118H94.1279C90.4946 150.114 87.0113 148.551 84.4422 145.773C81.873 142.995 80.4279 139.228 80.4238 135.3V74.737C80.428 70.8082 81.8731 67.0417 84.4422 64.2636C87.0113 61.4856 90.4946 59.9229 94.1279 59.9185H244.872C248.505 59.9229 251.989 61.4856 254.558 64.2636C257.127 67.0417 258.572 70.8082 258.576 74.737V135.3C258.572 139.228 257.127 142.995 254.558 145.773C251.989 148.551 248.505 150.114 244.872 150.118Z" fill="#F2F2F2"/>
<path d="M162.616 11.5221H112.084C111.662 11.5221 111.257 11.3407 110.959 11.018C110.66 10.6952 110.493 10.2575 110.493 9.80106C110.493 9.34463 110.66 8.90689 110.959 8.58414C111.257 8.26139 111.662 8.08008 112.084 8.08008H162.616C163.038 8.08008 163.443 8.26139 163.741 8.58414C164.04 8.90689 164.208 9.34463 164.208 9.80106C164.208 10.2575 164.04 10.6952 163.741 11.018C163.443 11.3407 163.038 11.5221 162.616 11.5221Z" fill="white"/>
<path d="M109.502 308L109.113 307.844C102.595 305.185 96.6898 301.023 91.8089 295.648C86.9281 290.272 83.1884 283.812 80.8496 276.716C79.5671 272.724 78.7545 268.574 78.4309 264.363L78.3991 263.961L78.7662 264.032C83.1476 264.882 87.7472 265.352 89.7965 265.536L78.2992 257.309L78.32 256.882C78.4075 254.919 79.0366 253.029 80.1263 251.456C81.2159 249.883 82.7162 248.699 84.4338 248.057C86.1678 247.364 88.0538 247.249 89.8489 247.726C91.6439 248.203 93.2658 249.25 94.5055 250.733C95.6485 252.074 96.857 253.425 98.0255 254.731C102.041 259.219 106.194 263.859 108.819 269.337C110.769 273.505 111.833 278.091 111.934 282.761C112.035 287.43 111.17 292.065 109.402 296.327L109.502 308Z" fill="#F2F2F2"/>
<path d="M291.086 306.875L58.8767 307.073C58.7833 307.073 58.6908 307.054 58.6045 307.015C58.5182 306.977 58.4398 306.92 58.3737 306.849C58.3076 306.778 58.2551 306.693 58.2193 306.6C58.1836 306.507 58.1652 306.407 58.1652 306.306C58.1652 306.205 58.1836 306.105 58.2193 306.012C58.2551 305.919 58.3076 305.834 58.3737 305.763C58.4398 305.691 58.5182 305.635 58.6045 305.597C58.6908 305.558 58.7833 305.539 58.8767 305.539L291.086 305.341C291.179 305.341 291.272 305.36 291.358 305.399C291.444 305.437 291.523 305.493 291.589 305.565C291.655 305.636 291.707 305.721 291.743 305.814C291.779 305.907 291.797 306.007 291.797 306.108C291.797 306.209 291.779 306.309 291.743 306.402C291.707 306.495 291.655 306.58 291.589 306.651C291.523 306.722 291.444 306.779 291.358 306.817C291.272 306.856 291.179 306.875 291.086 306.875Z" fill="#CACACA"/>
<path d="M241.55 118.643L239.142 78.3047C239.035 76.596 238.311 75.0012 237.127 73.8644C235.942 72.7277 234.392 72.1401 232.81 72.2284C231.992 72.2741 231.191 72.4996 230.456 72.891C229.721 73.2824 229.067 73.8315 228.535 74.505C228.003 75.1784 227.603 75.9621 227.359 76.8081C227.116 77.6542 227.035 78.5449 227.121 79.426L230.81 121.245L232.061 146.757C231.089 147.269 230.286 148.091 229.761 149.114C229.236 150.136 229.015 151.308 229.128 152.47C229.24 153.633 229.681 154.73 230.39 155.613C231.1 156.495 232.043 157.12 233.092 157.402C234.141 157.685 235.246 157.611 236.255 157.191C237.264 156.772 238.129 156.026 238.733 155.056C239.336 154.086 239.649 152.939 239.629 151.77C239.608 150.601 239.256 149.467 238.619 148.523L241.55 118.643Z" fill="#A0616A"/>
<path d="M243.06 86.2851C243.323 85.9745 243.485 85.579 243.52 85.1594C243.555 84.7398 243.462 84.3193 243.255 83.9625C243.007 83.517 242.894 82.999 242.932 82.4806C242.94 82.3805 242.954 82.2811 242.975 82.183C243.111 81.5952 243.114 80.9805 242.983 80.3913C242.852 79.802 242.592 79.2556 242.224 78.7985C240.994 77.3126 240.347 75.016 240.032 72.9585C239.687 70.7071 239.45 68.4016 238.616 66.3049C237.414 63.2804 234.694 60.6491 231.15 62.097C229.651 62.7382 228.403 63.9183 227.615 65.4386C225.929 68.5935 226.033 72.3245 226.165 75.8929L225.475 74.5077C225.682 78.4025 225.159 82.3023 223.938 85.9733C224.732 85.7743 225.337 86.9141 225.106 87.7596C224.875 88.605 224.179 89.1819 223.586 89.7868C222.839 90.5493 222.147 91.6656 222.908 92.7567C223.097 93.0121 223.333 93.2226 223.6 93.3748C223.868 93.5271 224.162 93.6178 224.464 93.6413C230.155 94.2172 235.896 93.514 241.324 91.5759C242.53 91.1447 243.818 90.5609 244.412 89.3478C245.007 88.1346 244.328 86.2167 243.06 86.2851Z" fill="#F95A61"/>
<path d="M200.921 292.018H194.344L191.215 264.588H200.921L200.921 292.018Z" fill="#A0616A"/>
<path d="M204.392 304.339H199.676L198.834 299.525L196.678 304.339H184.169C183.569 304.339 182.986 304.132 182.503 303.748C182.02 303.364 181.663 302.823 181.484 302.204C181.306 301.585 181.315 300.92 181.511 300.307C181.706 299.694 182.078 299.165 182.571 298.797L192.56 291.337V286.469L203.067 287.147L204.392 304.339Z" fill="#2F2E41"/>
<path d="M236.278 285.755L230.153 288.344L218.004 264.029L227.043 260.208L236.278 285.755Z" fill="#A0616A"/>
<path d="M243.659 295.864L239.267 297.721L236.862 293.568L236.475 298.901L224.824 303.825C224.266 304.061 223.652 304.098 223.073 303.93C222.494 303.763 221.979 303.399 221.605 302.893C221.23 302.387 221.015 301.764 220.991 301.116C220.967 300.468 221.134 299.829 221.47 299.292L228.262 288.412L226.623 283.878L236.638 280.374L243.659 295.864Z" fill="#2F2E41"/>
<path d="M232.143 114.683H201.46C201.46 114.683 189.905 203.913 189.872 204.076C189.839 204.238 196.393 206.815 193.414 210.037L190.435 213.258C188.052 215.835 192.204 224.641 192.204 224.641L187.456 277.042H207.066L216.651 168.802L203.685 220.694L220.578 277.042L232.739 269.311L235.122 262.224L230.387 257.104C230.387 257.104 229.164 249.409 229.164 244.863C229.164 240.318 232.739 244.184 229.164 240.318C227.617 238.645 223.263 218.124 223.263 218.124L237.505 168.802L240.899 146.786C241.772 141.111 240.987 135.283 238.652 130.113C236.765 125.929 234.388 120.449 232.143 114.683Z" fill="#2F2E41"/>
<path d="M233.93 59.9181L231.891 53.3033C231.438 51.8315 230.587 50.5398 229.45 49.5941C228.313 48.6484 226.94 48.0917 225.508 47.9955L223.696 47.8739C222.084 47.7656 220.486 48.2466 219.157 49.2394C217.829 50.2322 216.847 51.6793 216.371 53.3479C215.954 54.8242 215.138 56.1322 214.029 57.1042C212.92 58.0763 211.567 58.6683 210.145 58.8043C204.85 59.2922 196.989 61.0238 196.989 67.0053C196.989 76.0252 205.926 99.8637 204.139 101.797C202.352 103.729 198.181 111.694 200.564 114.038C201.185 114.649 200.684 117.585 200.486 119.689C200.125 123.499 224.993 115.076 232.143 117.259C239.293 119.443 235.718 103.085 236.909 101.797C238.028 100.322 239.025 98.7444 239.889 97.082C240.311 96.3168 240.609 95.4787 240.768 94.6043L242.82 83.3731C242.854 83.1862 242.882 83.003 242.903 82.8139C243.174 80.41 244.761 64.2356 238.697 61.851C232.143 59.2739 233.93 59.9181 233.93 59.9181Z" fill="#F95A61"/>
<path d="M165.564 43.6891L192.739 71.4465C193.893 72.6188 195.428 73.2533 197.011 73.2129C198.594 73.1726 200.099 72.4608 201.202 71.231C201.772 70.5949 202.216 69.8398 202.508 69.0118C202.799 68.1838 202.932 67.3004 202.897 66.4152C202.863 65.53 202.662 64.6617 202.307 63.8633C201.952 63.0648 201.45 62.3529 200.833 61.7709L171.787 33.8735L154.799 16.1175C155.188 15.0269 155.258 13.8331 154.998 12.6982C154.739 11.5633 154.162 10.5424 153.347 9.77407C152.532 9.00578 151.518 8.5274 150.443 8.40392C149.368 8.28044 148.284 8.51786 147.338 9.0839C146.392 9.64994 145.63 10.5172 145.155 11.5678C144.681 12.6184 144.517 13.8014 144.686 14.9561C144.856 16.1109 145.349 17.1813 146.101 18.0221C146.852 18.8628 147.824 19.4331 148.886 19.6554L165.564 43.6891Z" fill="#A0616A"/>
<path d="M184.842 68.4905C184.845 68.9118 184.976 69.3204 185.215 69.6535C185.453 69.9866 185.786 70.2258 186.163 70.3344C186.625 70.4779 187.034 70.7739 187.333 71.181C187.39 71.2605 187.442 71.3439 187.489 71.4307C187.76 71.9612 188.145 72.4133 188.612 72.7484C189.079 73.0835 189.613 73.2918 190.171 73.3556C192.007 73.5371 193.928 74.7422 195.455 76.0162C197.125 77.4104 198.752 78.9234 200.683 79.8445C203.468 81.1731 207.117 81.0961 208.799 77.4252C209.493 75.8519 209.663 74.0683 209.282 72.375C208.529 68.8231 206.102 66.1688 203.758 63.6536L205.136 64.1591C202.531 61.4602 200.457 58.2202 199.038 54.6334C198.582 55.364 197.421 54.9748 197.058 54.1859C196.694 53.3969 196.84 52.4619 196.893 51.5823C196.96 50.4734 196.763 49.1463 195.519 48.9084C195.219 48.8605 194.914 48.88 194.622 48.9658C194.331 49.0515 194.058 49.2016 193.823 49.4067C189.293 53.1777 185.533 57.921 182.78 63.3385C182.169 64.5421 181.594 65.9184 181.923 67.2444C182.252 68.5704 183.957 69.4747 184.842 68.4905Z" fill="#F95A61"/>
<path d="M223.801 46.3885C231.041 46.3885 236.909 40.0425 236.909 32.2143C236.909 24.3861 231.041 18.04 223.801 18.04C216.562 18.04 210.693 24.3861 210.693 32.2143C210.693 40.0425 216.562 46.3885 223.801 46.3885Z" fill="#A0616A"/>
<path d="M243.666 45.6992C242.987 44.2109 240.824 44.3849 239.722 45.5446C238.625 46.7043 238.226 48.4052 237.607 49.9193C236.987 51.4398 235.873 52.9796 234.341 53.0441C232.888 53.102 231.714 51.8264 230.355 51.2723C228.824 50.6473 227.144 50.9759 225.595 51.6202C225.559 51.4591 225.523 51.2981 225.476 51.1434C225.25 50.3124 224.928 49.5157 224.516 48.7725C224.514 49.5952 224.394 50.4125 224.159 51.195C224.011 51.6905 223.815 52.1678 223.575 52.6188C222.091 53.4306 220.625 54.3004 218.993 54.5904C217.015 54.9511 214.649 54.1522 213.905 52.1292C213.356 50.6344 213.845 48.8949 214.679 47.5483C215.513 46.2082 216.657 45.1323 217.593 43.8759C218.509 42.7035 219.196 41.3427 219.612 39.8756C220.029 38.4085 220.167 36.8654 220.018 35.3392C219.853 34.001 219.396 32.7244 218.685 31.6144C217.975 30.5043 217.03 29.5926 215.93 28.9543C214.778 29.4039 213.583 29.715 212.367 29.8821C212.142 29.051 211.819 28.2543 211.408 27.5111C211.406 28.3338 211.286 29.1511 211.051 29.9336C209.916 29.9156 208.827 29.4505 207.988 28.6257C206.201 26.7959 206.367 23.6003 207.392 21.1778C208.171 19.3428 209.342 17.7341 210.809 16.4842C212.275 15.2342 213.995 14.3787 215.827 13.988C217.659 13.5973 219.551 13.6827 221.346 14.2371C223.142 14.7915 224.79 15.799 226.155 17.1768C228.115 14.4064 232.047 13.9683 234.967 15.463C237.881 16.9642 239.906 19.9537 241.342 23.0784C244.545 30.0911 245.368 38.0975 243.666 45.6992Z" fill="#2F2E41"/>
</svg>
