<svg width="585" height="182" viewBox="0 0 585 182" fill="none" xmlns="http://www.w3.org/2000/svg">
<path d="M98.22 121.3C97.82 121.3 97.48 121.15 97.2 120.85C96.94 120.55 96.84 120.2 96.9 119.8L98.16 110.17C98.22 109.73 98.4 109.38 98.7 109.12C99 108.84 99.36 108.7 99.78 108.7C100.64 108.7 101.2 109.07 101.46 109.81L103.5 115.69C103.6 115.89 103.7 115.99 103.8 115.99C103.94 115.99 104.04 115.89 104.1 115.69L106.14 109.81C106.4 109.07 106.95 108.7 107.79 108.7C108.25 108.7 108.62 108.84 108.9 109.12C109.2 109.38 109.38 109.73 109.44 110.17L110.7 119.8C110.76 120.2 110.65 120.55 110.37 120.85C110.11 121.15 109.78 121.3 109.38 121.3C109.02 121.3 108.71 121.19 108.45 120.97C108.21 120.73 108.07 120.43 108.03 120.07L107.58 113.8C107.56 113.56 107.48 113.44 107.34 113.44C107.2 113.44 107.1 113.54 107.04 113.74L105.3 118.63C105.02 119.37 104.52 119.74 103.8 119.74C103.52 119.74 103.24 119.64 102.96 119.44C102.7 119.24 102.49 118.98 102.33 118.66L100.59 113.8C100.53 113.62 100.43 113.53 100.29 113.53C100.17 113.53 100.09 113.65 100.05 113.89L99.57 120.07C99.55 120.43 99.41 120.73 99.15 120.97C98.89 121.19 98.58 121.3 98.22 121.3ZM118.696 113.29C118.696 112.91 118.816 112.6 119.056 112.36C119.316 112.12 119.636 112 120.016 112C120.396 112 120.706 112.13 120.946 112.39C121.206 112.63 121.336 112.93 121.336 113.29V117.52C121.336 118.34 121.126 119.04 120.706 119.62C120.286 120.18 119.746 120.6 119.086 120.88C118.426 121.16 117.726 121.3 116.986 121.3C116.266 121.3 115.576 121.16 114.916 120.88C114.256 120.6 113.706 120.18 113.266 119.62C112.846 119.04 112.636 118.34 112.636 117.52V113.29C112.636 112.91 112.756 112.6 112.996 112.36C113.256 112.12 113.576 112 113.956 112C114.336 112 114.646 112.13 114.886 112.39C115.146 112.63 115.276 112.93 115.276 113.29V117.4C115.276 117.82 115.436 118.17 115.756 118.45C116.076 118.73 116.486 118.87 116.986 118.87C117.486 118.87 117.896 118.73 118.216 118.45C118.536 118.17 118.696 117.82 118.696 117.4V113.29ZM127.826 121.3C126.466 121.3 125.316 120.9 124.376 120.1C123.456 119.28 122.996 118.16 122.996 116.74C122.996 115.26 123.446 114.1 124.346 113.26C125.266 112.42 126.416 112 127.796 112C128.776 112 129.586 112.18 130.226 112.54C130.866 112.9 131.346 113.36 131.666 113.92C131.986 114.48 132.146 115.07 132.146 115.69C132.146 116.73 131.686 117.25 130.766 117.25H125.786C125.626 117.25 125.546 117.35 125.546 117.55C125.546 118.01 125.796 118.38 126.296 118.66C126.816 118.92 127.396 119.05 128.036 119.05C128.436 119.05 128.836 119 129.236 118.9C129.636 118.78 129.986 118.61 130.286 118.39C130.486 118.25 130.696 118.18 130.916 118.18C131.216 118.18 131.466 118.29 131.666 118.51C131.886 118.73 131.996 118.99 131.996 119.29C131.996 119.65 131.806 119.99 131.426 120.31C131.066 120.61 130.536 120.85 129.836 121.03C129.156 121.21 128.486 121.3 127.826 121.3ZM129.386 115.51C129.426 115.51 129.476 115.5 129.536 115.48C129.616 115.46 129.656 115.39 129.656 115.27C129.656 114.97 129.466 114.7 129.086 114.46C128.726 114.2 128.256 114.07 127.676 114.07C127.056 114.07 126.546 114.21 126.146 114.49C125.766 114.75 125.576 115.02 125.576 115.3C125.576 115.44 125.656 115.51 125.816 115.51H129.386ZM137.058 121.3C135.698 121.3 134.578 121.02 133.698 120.46C133.518 120.34 133.388 120.2 133.308 120.04C133.228 119.86 133.188 119.69 133.188 119.53C133.188 119.19 133.298 118.88 133.518 118.6C133.758 118.32 134.048 118.18 134.388 118.18C134.548 118.18 134.708 118.22 134.868 118.3C135.228 118.46 135.638 118.6 136.098 118.72C136.558 118.82 136.978 118.87 137.358 118.87C138.098 118.87 138.468 118.7 138.468 118.36C138.468 118.16 138.378 117.99 138.198 117.85C138.018 117.69 137.598 117.58 136.938 117.52C136.678 117.5 136.338 117.46 135.918 117.4C135.518 117.34 135.118 117.23 134.718 117.07C134.318 116.89 133.978 116.63 133.698 116.29C133.438 115.95 133.308 115.49 133.308 114.91C133.308 114.01 133.648 113.3 134.328 112.78C135.008 112.26 135.918 112 137.058 112C137.718 112 138.338 112.07 138.918 112.21C139.518 112.35 139.968 112.56 140.268 112.84C140.548 113.1 140.688 113.4 140.688 113.74C140.688 114.04 140.578 114.31 140.358 114.55C140.138 114.79 139.858 114.91 139.518 114.91C139.338 114.91 139.168 114.87 139.008 114.79C138.768 114.63 138.458 114.51 138.078 114.43C137.718 114.35 137.348 114.31 136.968 114.31C136.208 114.31 135.828 114.47 135.828 114.79C135.828 114.93 135.898 115.06 136.038 115.18C136.198 115.28 136.548 115.37 137.088 115.45C137.428 115.49 137.818 115.55 138.258 115.63C138.698 115.69 139.118 115.81 139.518 115.99C139.938 116.15 140.288 116.42 140.568 116.8C140.848 117.18 140.988 117.7 140.988 118.36C140.988 119.26 140.628 119.98 139.908 120.52C139.188 121.04 138.238 121.3 137.058 121.3ZM146.389 121.3C145.529 121.3 144.819 121.05 144.259 120.55C143.699 120.05 143.419 119.28 143.419 118.24V115C143.419 114.8 143.319 114.7 143.119 114.7H142.669C142.309 114.7 142.039 114.59 141.859 114.37C141.679 114.15 141.589 113.87 141.589 113.53C141.589 113.17 141.679 112.88 141.859 112.66C142.039 112.42 142.309 112.3 142.669 112.3H143.119C143.319 112.3 143.419 112.2 143.419 112V109.78C143.419 109.44 143.539 109.15 143.779 108.91C144.019 108.67 144.329 108.55 144.709 108.55C145.089 108.55 145.399 108.67 145.639 108.91C145.899 109.13 146.029 109.42 146.029 109.78V112C146.029 112.2 146.129 112.3 146.329 112.3H147.439C147.779 112.3 148.059 112.42 148.279 112.66C148.519 112.9 148.639 113.19 148.639 113.53C148.639 113.87 148.519 114.15 148.279 114.37C148.059 114.59 147.769 114.7 147.409 114.7H146.329C146.129 114.7 146.029 114.8 146.029 115V117.82C146.029 118.18 146.089 118.43 146.209 118.57C146.349 118.71 146.519 118.78 146.719 118.78C146.799 118.78 146.959 118.76 147.199 118.72C147.439 118.66 147.589 118.63 147.649 118.63C147.969 118.63 148.239 118.75 148.459 118.99C148.679 119.23 148.789 119.52 148.789 119.86C148.789 120.12 148.709 120.36 148.549 120.58C148.409 120.8 148.179 120.96 147.859 121.06C147.599 121.14 147.349 121.2 147.109 121.24C146.869 121.28 146.629 121.3 146.389 121.3ZM151.636 121.21C151.256 121.21 150.936 121.1 150.676 120.88C150.416 120.66 150.286 120.38 150.286 120.04V113.32C150.286 113 150.406 112.73 150.646 112.51C150.906 112.27 151.236 112.15 151.636 112.15C151.996 112.15 152.286 112.26 152.506 112.48C152.746 112.68 152.886 112.93 152.926 113.23C153.146 112.89 153.446 112.6 153.826 112.36C154.206 112.12 154.606 112 155.026 112C155.286 112 155.536 112.03 155.776 112.09C156.056 112.17 156.286 112.33 156.466 112.57C156.646 112.79 156.736 113.05 156.736 113.35C156.736 113.77 156.596 114.12 156.316 114.4C156.056 114.66 155.746 114.75 155.386 114.67C155.126 114.61 154.866 114.58 154.606 114.58C154.146 114.58 153.766 114.74 153.466 115.06C153.166 115.38 152.986 116.03 152.926 117.01V120.01C152.926 120.35 152.796 120.64 152.536 120.88C152.296 121.1 151.996 121.21 151.636 121.21ZM161.686 121.3C160.346 121.3 159.256 120.88 158.416 120.04C157.596 119.18 157.186 118.04 157.186 116.62C157.186 115.2 157.586 114.08 158.386 113.26C159.206 112.42 160.276 112 161.596 112C162.536 112 163.356 112.33 164.056 112.99C164.136 112.75 164.286 112.55 164.506 112.39C164.726 112.23 164.986 112.15 165.286 112.15C165.686 112.15 166.006 112.27 166.246 112.51C166.506 112.73 166.636 113 166.636 113.32V120.13C166.636 120.47 166.506 120.75 166.246 120.97C166.006 121.19 165.686 121.3 165.286 121.3C164.626 121.3 164.216 121.01 164.056 120.43C163.416 121.01 162.626 121.3 161.686 121.3ZM161.896 118.87C162.536 118.87 163.046 118.66 163.426 118.24C163.806 117.8 163.996 117.26 163.996 116.62C163.996 115.96 163.806 115.43 163.426 115.03C163.046 114.63 162.536 114.43 161.896 114.43C161.276 114.43 160.766 114.63 160.366 115.03C159.986 115.43 159.796 115.96 159.796 116.62C159.796 117.26 159.986 117.8 160.366 118.24C160.766 118.66 161.276 118.87 161.896 118.87ZM176.275 121.3C175.895 121.3 175.575 121.19 175.315 120.97C175.055 120.75 174.925 120.47 174.925 120.13V108.97C174.925 108.65 175.045 108.38 175.285 108.16C175.545 107.92 175.875 107.8 176.275 107.8C176.655 107.8 176.965 107.92 177.205 108.16C177.445 108.38 177.565 108.66 177.565 109V120.1C177.565 120.44 177.435 120.73 177.175 120.97C176.935 121.19 176.635 121.3 176.275 121.3ZM184.133 121.3C183.273 121.3 182.483 121.1 181.763 120.7C181.043 120.3 180.463 119.75 180.023 119.05C179.603 118.33 179.393 117.52 179.393 116.62C179.393 115.7 179.603 114.9 180.023 114.22C180.463 113.52 181.043 112.98 181.763 112.6C182.483 112.2 183.273 112 184.133 112C185.013 112 185.803 112.2 186.503 112.6C187.223 112.98 187.793 113.52 188.213 114.22C188.633 114.9 188.843 115.7 188.843 116.62C188.843 117.52 188.633 118.33 188.213 119.05C187.793 119.75 187.223 120.3 186.503 120.7C185.803 121.1 185.013 121.3 184.133 121.3ZM184.133 118.87C184.753 118.87 185.253 118.66 185.633 118.24C186.033 117.8 186.233 117.26 186.233 116.62C186.233 115.96 186.033 115.43 185.633 115.03C185.253 114.63 184.753 114.43 184.133 114.43C183.533 114.43 183.023 114.63 182.603 115.03C182.203 115.43 182.003 115.96 182.003 116.62C182.003 117.26 182.203 117.8 182.603 118.24C183.023 118.66 183.533 118.87 184.133 118.87ZM198.013 121.3C197.633 121.3 197.313 121.19 197.053 120.97C196.793 120.75 196.663 120.47 196.663 120.13V113.32C196.663 113 196.783 112.73 197.023 112.51C197.283 112.27 197.613 112.15 198.013 112.15C198.473 112.15 198.823 112.31 199.063 112.63C199.163 112.75 199.223 112.87 199.243 112.99C199.483 112.69 199.803 112.45 200.203 112.27C200.603 112.09 201.053 112 201.553 112C202.913 112 203.893 112.45 204.493 113.35C204.853 112.91 205.293 112.58 205.813 112.36C206.333 112.12 206.873 112 207.433 112C208.553 112 209.433 112.33 210.073 112.99C210.733 113.65 211.063 114.7 211.063 116.14V120.19C211.063 120.51 210.933 120.78 210.673 121C210.433 121.2 210.123 121.3 209.743 121.3C209.363 121.3 209.043 121.19 208.783 120.97C208.543 120.75 208.423 120.47 208.423 120.13V116.47C208.423 115.73 208.293 115.2 208.033 114.88C207.773 114.56 207.403 114.4 206.923 114.4C206.443 114.4 206.053 114.55 205.753 114.85C205.473 115.13 205.283 115.47 205.183 115.87V120.19C205.183 120.51 205.053 120.78 204.793 121C204.553 121.2 204.243 121.3 203.863 121.3C203.483 121.3 203.163 121.19 202.903 120.97C202.663 120.75 202.543 120.47 202.543 120.13V116.47C202.543 115.73 202.413 115.2 202.153 114.88C201.893 114.56 201.523 114.4 201.043 114.4C200.583 114.4 200.203 114.55 199.903 114.85C199.603 115.13 199.403 115.46 199.303 115.84V120.1C199.303 120.44 199.173 120.73 198.913 120.97C198.673 121.19 198.373 121.3 198.013 121.3ZM217.534 121.3C216.174 121.3 215.024 120.9 214.084 120.1C213.164 119.28 212.704 118.16 212.704 116.74C212.704 115.26 213.154 114.1 214.054 113.26C214.974 112.42 216.124 112 217.504 112C218.484 112 219.294 112.18 219.934 112.54C220.574 112.9 221.054 113.36 221.374 113.92C221.694 114.48 221.854 115.07 221.854 115.69C221.854 116.73 221.394 117.25 220.474 117.25H215.494C215.334 117.25 215.254 117.35 215.254 117.55C215.254 118.01 215.504 118.38 216.004 118.66C216.524 118.92 217.104 119.05 217.744 119.05C218.144 119.05 218.544 119 218.944 118.9C219.344 118.78 219.694 118.61 219.994 118.39C220.194 118.25 220.404 118.18 220.624 118.18C220.924 118.18 221.174 118.29 221.374 118.51C221.594 118.73 221.704 118.99 221.704 119.29C221.704 119.65 221.514 119.99 221.134 120.31C220.774 120.61 220.244 120.85 219.544 121.03C218.864 121.21 218.194 121.3 217.534 121.3ZM219.094 115.51C219.134 115.51 219.184 115.5 219.244 115.48C219.324 115.46 219.364 115.39 219.364 115.27C219.364 114.97 219.174 114.7 218.794 114.46C218.434 114.2 217.964 114.07 217.384 114.07C216.764 114.07 216.254 114.21 215.854 114.49C215.474 114.75 215.284 115.02 215.284 115.3C215.284 115.44 215.364 115.51 215.524 115.51H219.094ZM223.255 125.35C223.015 125.35 222.805 125.33 222.625 125.29C222.445 125.25 222.275 125.21 222.115 125.17C221.815 125.07 221.595 124.91 221.455 124.69C221.315 124.47 221.245 124.24 221.245 124C221.245 123.64 221.375 123.32 221.635 123.04C221.895 122.76 222.245 122.67 222.685 122.77C222.845 122.81 222.985 122.83 223.105 122.83C223.605 122.83 223.855 122.47 223.855 121.75V113.17C223.855 112.85 223.975 112.58 224.215 112.36C224.475 112.12 224.805 112 225.205 112C225.605 112 225.915 112.12 226.135 112.36C226.375 112.58 226.495 112.86 226.495 113.2V121.81C226.495 122.85 226.195 123.7 225.595 124.36C225.015 125.02 224.235 125.35 223.255 125.35ZM225.175 110.65C224.755 110.65 224.395 110.52 224.095 110.26C223.795 109.98 223.645 109.63 223.645 109.21C223.645 108.83 223.795 108.5 224.095 108.22C224.395 107.94 224.755 107.8 225.175 107.8C225.575 107.8 225.915 107.94 226.195 108.22C226.495 108.5 226.645 108.83 226.645 109.21C226.645 109.63 226.495 109.98 226.195 110.26C225.915 110.52 225.575 110.65 225.175 110.65ZM233.029 121.3C232.169 121.3 231.379 121.1 230.659 120.7C229.939 120.3 229.359 119.75 228.919 119.05C228.499 118.33 228.289 117.52 228.289 116.62C228.289 115.7 228.499 114.9 228.919 114.22C229.359 113.52 229.939 112.98 230.659 112.6C231.379 112.2 232.169 112 233.029 112C233.909 112 234.699 112.2 235.399 112.6C236.119 112.98 236.689 113.52 237.109 114.22C237.529 114.9 237.739 115.7 237.739 116.62C237.739 117.52 237.529 118.33 237.109 119.05C236.689 119.75 236.119 120.3 235.399 120.7C234.699 121.1 233.909 121.3 233.029 121.3ZM233.029 118.87C233.649 118.87 234.149 118.66 234.529 118.24C234.929 117.8 235.129 117.26 235.129 116.62C235.129 115.96 234.929 115.43 234.529 115.03C234.149 114.63 233.649 114.43 233.029 114.43C232.429 114.43 231.919 114.63 231.499 115.03C231.099 115.43 230.899 115.96 230.899 116.62C230.899 117.26 231.099 117.8 231.499 118.24C231.919 118.66 232.429 118.87 233.029 118.87ZM240.904 121.21C240.524 121.21 240.204 121.1 239.944 120.88C239.684 120.66 239.554 120.38 239.554 120.04V113.32C239.554 113 239.674 112.73 239.914 112.51C240.174 112.27 240.504 112.15 240.904 112.15C241.264 112.15 241.554 112.26 241.774 112.48C242.014 112.68 242.154 112.93 242.194 113.23C242.414 112.89 242.714 112.6 243.094 112.36C243.474 112.12 243.874 112 244.294 112C244.554 112 244.804 112.03 245.044 112.09C245.324 112.17 245.554 112.33 245.734 112.57C245.914 112.79 246.004 113.05 246.004 113.35C246.004 113.77 245.864 114.12 245.584 114.4C245.324 114.66 245.014 114.75 244.654 114.67C244.394 114.61 244.134 114.58 243.874 114.58C243.414 114.58 243.034 114.74 242.734 115.06C242.434 115.38 242.254 116.03 242.194 117.01V120.01C242.194 120.35 242.064 120.64 241.804 120.88C241.564 121.1 241.264 121.21 240.904 121.21ZM257.192 121.3C255.852 121.3 254.772 120.88 253.952 120.04C253.152 119.18 252.752 118.04 252.752 116.62C252.752 115.2 253.142 114.08 253.922 113.26C254.722 112.42 255.782 112 257.102 112C257.962 112 258.732 112.31 259.412 112.93V109C259.412 108.66 259.532 108.38 259.772 108.16C260.012 107.92 260.322 107.8 260.702 107.8C261.102 107.8 261.422 107.92 261.662 108.16C261.922 108.38 262.052 108.65 262.052 108.97V120.13C262.052 120.47 261.922 120.75 261.662 120.97C261.422 121.19 261.102 121.3 260.702 121.3C260.062 121.3 259.652 121.02 259.472 120.46C258.852 121.02 258.092 121.3 257.192 121.3ZM257.402 118.87C258.002 118.87 258.482 118.66 258.842 118.24C259.222 117.8 259.412 117.26 259.412 116.62C259.412 115.96 259.222 115.43 258.842 115.03C258.482 114.63 258.002 114.43 257.402 114.43C256.782 114.43 256.282 114.63 255.902 115.03C255.542 115.43 255.362 115.96 255.362 116.62C255.362 117.26 255.542 117.8 255.902 118.24C256.282 118.66 256.782 118.87 257.402 118.87ZM268.539 121.3C267.179 121.3 266.029 120.9 265.089 120.1C264.169 119.28 263.709 118.16 263.709 116.74C263.709 115.26 264.159 114.1 265.059 113.26C265.979 112.42 267.129 112 268.509 112C269.489 112 270.299 112.18 270.939 112.54C271.579 112.9 272.059 113.36 272.379 113.92C272.699 114.48 272.859 115.07 272.859 115.69C272.859 116.73 272.399 117.25 271.479 117.25H266.499C266.339 117.25 266.259 117.35 266.259 117.55C266.259 118.01 266.509 118.38 267.009 118.66C267.529 118.92 268.109 119.05 268.749 119.05C269.149 119.05 269.549 119 269.949 118.9C270.349 118.78 270.699 118.61 270.999 118.39C271.199 118.25 271.409 118.18 271.629 118.18C271.929 118.18 272.179 118.29 272.379 118.51C272.599 118.73 272.709 118.99 272.709 119.29C272.709 119.65 272.519 119.99 272.139 120.31C271.779 120.61 271.249 120.85 270.549 121.03C269.869 121.21 269.199 121.3 268.539 121.3ZM270.099 115.51C270.139 115.51 270.189 115.5 270.249 115.48C270.329 115.46 270.369 115.39 270.369 115.27C270.369 114.97 270.179 114.7 269.799 114.46C269.439 114.2 268.969 114.07 268.389 114.07C267.769 114.07 267.259 114.21 266.859 114.49C266.479 114.75 266.289 115.02 266.289 115.3C266.289 115.44 266.369 115.51 266.529 115.51H270.099ZM284.407 121.3C283.547 121.3 282.837 121.05 282.277 120.55C281.717 120.05 281.437 119.28 281.437 118.24V115C281.437 114.8 281.337 114.7 281.137 114.7H280.687C280.327 114.7 280.057 114.59 279.877 114.37C279.697 114.15 279.607 113.87 279.607 113.53C279.607 113.17 279.697 112.88 279.877 112.66C280.057 112.42 280.327 112.3 280.687 112.3H281.137C281.337 112.3 281.437 112.2 281.437 112V109.78C281.437 109.44 281.557 109.15 281.797 108.91C282.037 108.67 282.347 108.55 282.727 108.55C283.107 108.55 283.417 108.67 283.657 108.91C283.917 109.13 284.047 109.42 284.047 109.78V112C284.047 112.2 284.147 112.3 284.347 112.3H285.457C285.797 112.3 286.077 112.42 286.297 112.66C286.537 112.9 286.657 113.19 286.657 113.53C286.657 113.87 286.537 114.15 286.297 114.37C286.077 114.59 285.787 114.7 285.427 114.7H284.347C284.147 114.7 284.047 114.8 284.047 115V117.82C284.047 118.18 284.107 118.43 284.227 118.57C284.367 118.71 284.537 118.78 284.737 118.78C284.817 118.78 284.977 118.76 285.217 118.72C285.457 118.66 285.607 118.63 285.667 118.63C285.987 118.63 286.257 118.75 286.477 118.99C286.697 119.23 286.807 119.52 286.807 119.86C286.807 120.12 286.727 120.36 286.567 120.58C286.427 120.8 286.197 120.96 285.877 121.06C285.617 121.14 285.367 121.2 285.127 121.24C284.887 121.28 284.647 121.3 284.407 121.3ZM289.684 121.3C289.304 121.3 288.984 121.19 288.724 120.97C288.464 120.75 288.334 120.47 288.334 120.13V113.17C288.334 112.85 288.454 112.58 288.694 112.36C288.954 112.12 289.284 112 289.684 112C290.084 112 290.394 112.12 290.614 112.36C290.854 112.58 290.974 112.86 290.974 113.2V120.1C290.974 120.44 290.844 120.73 290.584 120.97C290.344 121.19 290.044 121.3 289.684 121.3ZM287.554 109.39L290.104 107.17C290.404 106.93 290.714 106.79 291.034 106.75C291.354 106.75 291.624 106.87 291.844 107.11C292.084 107.33 292.204 107.61 292.204 107.95C292.204 108.39 292.034 108.7 291.694 108.88L288.544 110.65C288.484 110.67 288.414 110.7 288.334 110.74C288.274 110.78 288.194 110.8 288.094 110.8C287.534 110.8 287.254 110.55 287.254 110.05C287.254 109.79 287.354 109.57 287.554 109.39ZM303.637 121.3C302.277 121.3 301.127 120.9 300.187 120.1C299.267 119.28 298.807 118.16 298.807 116.74C298.807 115.26 299.257 114.1 300.157 113.26C301.077 112.42 302.227 112 303.607 112C304.587 112 305.397 112.18 306.037 112.54C306.677 112.9 307.157 113.36 307.477 113.92C307.797 114.48 307.957 115.07 307.957 115.69C307.957 116.73 307.497 117.25 306.577 117.25H301.597C301.437 117.25 301.357 117.35 301.357 117.55C301.357 118.01 301.607 118.38 302.107 118.66C302.627 118.92 303.207 119.05 303.847 119.05C304.247 119.05 304.647 119 305.047 118.9C305.447 118.78 305.797 118.61 306.097 118.39C306.297 118.25 306.507 118.18 306.727 118.18C307.027 118.18 307.277 118.29 307.477 118.51C307.697 118.73 307.807 118.99 307.807 119.29C307.807 119.65 307.617 119.99 307.237 120.31C306.877 120.61 306.347 120.85 305.647 121.03C304.967 121.21 304.297 121.3 303.637 121.3ZM305.197 115.51C305.237 115.51 305.287 115.5 305.347 115.48C305.427 115.46 305.467 115.39 305.467 115.27C305.467 114.97 305.277 114.7 304.897 114.46C304.537 114.2 304.067 114.07 303.487 114.07C302.867 114.07 302.357 114.21 301.957 114.49C301.577 114.75 301.387 115.02 301.387 115.3C301.387 115.44 301.467 115.51 301.627 115.51H305.197ZM317.279 121.3C316.899 121.3 316.579 121.19 316.319 120.97C316.079 120.75 315.959 120.47 315.959 120.13V116.47C315.959 115.73 315.789 115.2 315.449 114.88C315.129 114.56 314.729 114.4 314.249 114.4C313.749 114.4 313.329 114.56 312.989 114.88C312.669 115.2 312.469 115.57 312.389 115.99V120.01C312.389 120.35 312.259 120.64 311.999 120.88C311.759 121.1 311.459 121.21 311.099 121.21C310.719 121.21 310.399 121.1 310.139 120.88C309.879 120.66 309.749 120.38 309.749 120.04V113.32C309.749 113 309.869 112.73 310.109 112.51C310.369 112.27 310.699 112.15 311.099 112.15C311.419 112.15 311.689 112.24 311.909 112.42C312.129 112.58 312.279 112.79 312.359 113.05C312.899 112.35 313.719 112 314.819 112C315.939 112 316.849 112.33 317.549 112.99C318.249 113.65 318.599 114.7 318.599 116.14V120.19C318.599 120.51 318.469 120.78 318.209 121C317.969 121.2 317.659 121.3 317.279 121.3ZM330.608 121.3C329.748 121.3 329.038 121.05 328.478 120.55C327.918 120.05 327.638 119.28 327.638 118.24V115C327.638 114.8 327.538 114.7 327.338 114.7H326.888C326.528 114.7 326.258 114.59 326.078 114.37C325.898 114.15 325.808 113.87 325.808 113.53C325.808 113.17 325.898 112.88 326.078 112.66C326.258 112.42 326.528 112.3 326.888 112.3H327.338C327.538 112.3 327.638 112.2 327.638 112V109.78C327.638 109.44 327.758 109.15 327.998 108.91C328.238 108.67 328.548 108.55 328.928 108.55C329.308 108.55 329.618 108.67 329.858 108.91C330.118 109.13 330.248 109.42 330.248 109.78V112C330.248 112.2 330.348 112.3 330.548 112.3H331.658C331.998 112.3 332.278 112.42 332.498 112.66C332.738 112.9 332.858 113.19 332.858 113.53C332.858 113.87 332.738 114.15 332.498 114.37C332.278 114.59 331.988 114.7 331.628 114.7H330.548C330.348 114.7 330.248 114.8 330.248 115V117.82C330.248 118.18 330.308 118.43 330.428 118.57C330.568 118.71 330.738 118.78 330.938 118.78C331.018 118.78 331.178 118.76 331.418 118.72C331.658 118.66 331.808 118.63 331.868 118.63C332.188 118.63 332.458 118.75 332.678 118.99C332.898 119.23 333.008 119.52 333.008 119.86C333.008 120.12 332.928 120.36 332.768 120.58C332.628 120.8 332.398 120.96 332.078 121.06C331.818 121.14 331.568 121.2 331.328 121.24C331.088 121.28 330.848 121.3 330.608 121.3ZM340.415 113.29C340.415 112.91 340.535 112.6 340.775 112.36C341.035 112.12 341.355 112 341.735 112C342.115 112 342.425 112.13 342.665 112.39C342.925 112.63 343.055 112.93 343.055 113.29V117.52C343.055 118.34 342.845 119.04 342.425 119.62C342.005 120.18 341.465 120.6 340.805 120.88C340.145 121.16 339.445 121.3 338.705 121.3C337.985 121.3 337.295 121.16 336.635 120.88C335.975 120.6 335.425 120.18 334.985 119.62C334.565 119.04 334.355 118.34 334.355 117.52V113.29C334.355 112.91 334.475 112.6 334.715 112.36C334.975 112.12 335.295 112 335.675 112C336.055 112 336.365 112.13 336.605 112.39C336.865 112.63 336.995 112.93 336.995 113.29V117.4C336.995 117.82 337.155 118.17 337.475 118.45C337.795 118.73 338.205 118.87 338.705 118.87C339.205 118.87 339.615 118.73 339.935 118.45C340.255 118.17 340.415 117.82 340.415 117.4V113.29ZM352.821 121.3C352.461 121.3 352.141 121.18 351.861 120.94C351.601 120.68 351.471 120.38 351.471 120.04V110.8C351.471 110.22 351.651 109.75 352.011 109.39C352.371 109.03 352.841 108.85 353.421 108.85H356.451C357.651 108.85 358.641 109.19 359.421 109.87C360.221 110.55 360.621 111.45 360.621 112.57C360.621 113.79 360.231 114.78 359.451 115.54C358.671 116.3 357.681 116.68 356.481 116.68H354.711C354.311 116.68 354.111 116.88 354.111 117.28L354.171 120.04C354.171 120.38 354.031 120.68 353.751 120.94C353.491 121.18 353.181 121.3 352.821 121.3ZM354.561 114.28H356.151C357.391 114.28 358.011 113.77 358.011 112.75C358.011 111.75 357.431 111.25 356.271 111.25H354.561C354.261 111.25 354.111 111.4 354.111 111.7V113.83C354.111 114.13 354.261 114.28 354.561 114.28ZM366.125 121.3C365.265 121.3 364.475 121.1 363.755 120.7C363.035 120.3 362.455 119.75 362.015 119.05C361.595 118.33 361.385 117.52 361.385 116.62C361.385 115.7 361.595 114.9 362.015 114.22C362.455 113.52 363.035 112.98 363.755 112.6C364.475 112.2 365.265 112 366.125 112C367.005 112 367.795 112.2 368.495 112.6C369.215 112.98 369.785 113.52 370.205 114.22C370.625 114.9 370.835 115.7 370.835 116.62C370.835 117.52 370.625 118.33 370.205 119.05C369.785 119.75 369.215 120.3 368.495 120.7C367.795 121.1 367.005 121.3 366.125 121.3ZM366.125 118.87C366.745 118.87 367.245 118.66 367.625 118.24C368.025 117.8 368.225 117.26 368.225 116.62C368.225 115.96 368.025 115.43 367.625 115.03C367.245 114.63 366.745 114.43 366.125 114.43C365.525 114.43 365.015 114.63 364.595 115.03C364.195 115.43 363.995 115.96 363.995 116.62C363.995 117.26 364.195 117.8 364.595 118.24C365.015 118.66 365.525 118.87 366.125 118.87ZM373.999 121.21C373.619 121.21 373.299 121.1 373.039 120.88C372.779 120.66 372.649 120.38 372.649 120.04V113.32C372.649 113 372.769 112.73 373.009 112.51C373.269 112.27 373.599 112.15 373.999 112.15C374.359 112.15 374.649 112.26 374.869 112.48C375.109 112.68 375.249 112.93 375.289 113.23C375.509 112.89 375.809 112.6 376.189 112.36C376.569 112.12 376.969 112 377.389 112C377.649 112 377.899 112.03 378.139 112.09C378.419 112.17 378.649 112.33 378.829 112.57C379.009 112.79 379.099 113.05 379.099 113.35C379.099 113.77 378.959 114.12 378.679 114.4C378.419 114.66 378.109 114.75 377.749 114.67C377.489 114.61 377.229 114.58 376.969 114.58C376.509 114.58 376.129 114.74 375.829 115.06C375.529 115.38 375.349 116.03 375.289 117.01V120.01C375.289 120.35 375.159 120.64 374.899 120.88C374.659 121.1 374.359 121.21 373.999 121.21ZM384.192 121.3C383.332 121.3 382.622 121.05 382.062 120.55C381.502 120.05 381.222 119.28 381.222 118.24V115C381.222 114.8 381.122 114.7 380.922 114.7H380.472C380.112 114.7 379.842 114.59 379.662 114.37C379.482 114.15 379.392 113.87 379.392 113.53C379.392 113.17 379.482 112.88 379.662 112.66C379.842 112.42 380.112 112.3 380.472 112.3H380.922C381.122 112.3 381.222 112.2 381.222 112V109.78C381.222 109.44 381.342 109.15 381.582 108.91C381.822 108.67 382.132 108.55 382.512 108.55C382.892 108.55 383.202 108.67 383.442 108.91C383.702 109.13 383.832 109.42 383.832 109.78V112C383.832 112.2 383.932 112.3 384.132 112.3H385.242C385.582 112.3 385.862 112.42 386.082 112.66C386.322 112.9 386.442 113.19 386.442 113.53C386.442 113.87 386.322 114.15 386.082 114.37C385.862 114.59 385.572 114.7 385.212 114.7H384.132C383.932 114.7 383.832 114.8 383.832 115V117.82C383.832 118.18 383.892 118.43 384.012 118.57C384.152 118.71 384.322 118.78 384.522 118.78C384.602 118.78 384.762 118.76 385.002 118.72C385.242 118.66 385.392 118.63 385.452 118.63C385.772 118.63 386.042 118.75 386.262 118.99C386.482 119.23 386.592 119.52 386.592 119.86C386.592 120.12 386.512 120.36 386.352 120.58C386.212 120.8 385.982 120.96 385.662 121.06C385.402 121.14 385.152 121.2 384.912 121.24C384.672 121.28 384.432 121.3 384.192 121.3ZM391.989 121.3C390.649 121.3 389.559 120.88 388.719 120.04C387.899 119.18 387.489 118.04 387.489 116.62C387.489 115.2 387.889 114.08 388.689 113.26C389.509 112.42 390.579 112 391.899 112C392.839 112 393.659 112.33 394.359 112.99C394.439 112.75 394.589 112.55 394.809 112.39C395.029 112.23 395.289 112.15 395.589 112.15C395.989 112.15 396.309 112.27 396.549 112.51C396.809 112.73 396.939 113 396.939 113.32V120.13C396.939 120.47 396.809 120.75 396.549 120.97C396.309 121.19 395.989 121.3 395.589 121.3C394.929 121.3 394.519 121.01 394.359 120.43C393.719 121.01 392.929 121.3 391.989 121.3ZM392.199 118.87C392.839 118.87 393.349 118.66 393.729 118.24C394.109 117.8 394.299 117.26 394.299 116.62C394.299 115.96 394.109 115.43 393.729 115.03C393.349 114.63 392.839 114.43 392.199 114.43C391.579 114.43 391.069 114.63 390.669 115.03C390.289 115.43 390.099 115.96 390.099 116.62C390.099 117.26 390.289 117.8 390.669 118.24C391.069 118.66 391.579 118.87 392.199 118.87ZM401.232 121.3C400.852 121.3 400.542 121.19 400.302 120.97C400.062 120.73 399.942 120.42 399.942 120.04V115C399.942 114.8 399.842 114.7 399.642 114.7H399.222C398.862 114.7 398.592 114.59 398.412 114.37C398.232 114.15 398.142 113.87 398.142 113.53C398.142 113.17 398.232 112.88 398.412 112.66C398.592 112.42 398.862 112.3 399.222 112.3H399.642C399.842 112.3 399.942 112.2 399.942 112V111.37C399.942 110.27 400.232 109.43 400.812 108.85C401.412 108.25 402.192 107.95 403.152 107.95C403.372 107.95 403.612 107.97 403.872 108.01C404.152 108.03 404.372 108.07 404.532 108.13C404.812 108.23 405.012 108.39 405.132 108.61C405.272 108.83 405.342 109.06 405.342 109.3C405.342 109.62 405.242 109.92 405.042 110.2C404.842 110.46 404.562 110.59 404.202 110.59C404.042 110.59 403.892 110.57 403.752 110.53C403.612 110.49 403.462 110.47 403.302 110.47C402.822 110.47 402.582 110.81 402.582 111.49V112C402.582 112.2 402.682 112.3 402.882 112.3H403.992C404.332 112.3 404.612 112.42 404.832 112.66C405.072 112.9 405.192 113.19 405.192 113.53C405.192 113.87 405.072 114.15 404.832 114.37C404.612 114.59 404.322 114.7 403.962 114.7H402.882C402.682 114.7 402.582 114.8 402.582 115V120.04C402.582 120.4 402.452 120.7 402.192 120.94C401.952 121.18 401.632 121.3 401.232 121.3ZM410.832 121.3C409.972 121.3 409.182 121.1 408.462 120.7C407.742 120.3 407.162 119.75 406.722 119.05C406.302 118.33 406.092 117.52 406.092 116.62C406.092 115.7 406.302 114.9 406.722 114.22C407.162 113.52 407.742 112.98 408.462 112.6C409.182 112.2 409.972 112 410.832 112C411.712 112 412.502 112.2 413.202 112.6C413.922 112.98 414.492 113.52 414.912 114.22C415.332 114.9 415.542 115.7 415.542 116.62C415.542 117.52 415.332 118.33 414.912 119.05C414.492 119.75 413.922 120.3 413.202 120.7C412.502 121.1 411.712 121.3 410.832 121.3ZM410.832 118.87C411.452 118.87 411.952 118.66 412.332 118.24C412.732 117.8 412.932 117.26 412.932 116.62C412.932 115.96 412.732 115.43 412.332 115.03C411.952 114.63 411.452 114.43 410.832 114.43C410.232 114.43 409.722 114.63 409.302 115.03C408.902 115.43 408.702 115.96 408.702 116.62C408.702 117.26 408.902 117.8 409.302 118.24C409.722 118.66 410.232 118.87 410.832 118.87ZM418.736 121.3C418.356 121.3 418.036 121.19 417.776 120.97C417.516 120.75 417.386 120.47 417.386 120.13V108.97C417.386 108.65 417.506 108.38 417.746 108.16C418.006 107.92 418.336 107.8 418.736 107.8C419.116 107.8 419.426 107.92 419.666 108.16C419.906 108.38 420.026 108.66 420.026 109V120.1C420.026 120.44 419.896 120.73 419.636 120.97C419.396 121.19 419.096 121.3 418.736 121.3ZM423.834 121.3C423.454 121.3 423.134 121.19 422.874 120.97C422.614 120.75 422.484 120.47 422.484 120.13V113.32C422.484 113 422.604 112.73 422.844 112.51C423.104 112.27 423.434 112.15 423.834 112.15C424.234 112.15 424.544 112.27 424.764 112.51C425.004 112.73 425.124 113.01 425.124 113.35V120.1C425.124 120.44 424.994 120.73 424.734 120.97C424.494 121.19 424.194 121.3 423.834 121.3ZM423.834 110.65C423.414 110.65 423.054 110.52 422.754 110.26C422.454 109.98 422.304 109.63 422.304 109.21C422.304 108.83 422.454 108.5 422.754 108.22C423.054 107.94 423.414 107.8 423.834 107.8C424.234 107.8 424.574 107.94 424.854 108.22C425.154 108.5 425.304 108.83 425.304 109.21C425.304 109.63 425.154 109.98 424.854 110.26C424.574 110.52 424.234 110.65 423.834 110.65ZM431.692 121.3C430.832 121.3 430.042 121.1 429.322 120.7C428.602 120.3 428.022 119.75 427.582 119.05C427.162 118.33 426.952 117.52 426.952 116.62C426.952 115.7 427.162 114.9 427.582 114.22C428.022 113.52 428.602 112.98 429.322 112.6C430.042 112.2 430.832 112 431.692 112C432.572 112 433.362 112.2 434.062 112.6C434.782 112.98 435.352 113.52 435.772 114.22C436.192 114.9 436.402 115.7 436.402 116.62C436.402 117.52 436.192 118.33 435.772 119.05C435.352 119.75 434.782 120.3 434.062 120.7C433.362 121.1 432.572 121.3 431.692 121.3ZM431.692 118.87C432.312 118.87 432.812 118.66 433.192 118.24C433.592 117.8 433.792 117.26 433.792 116.62C433.792 115.96 433.592 115.43 433.192 115.03C432.812 114.63 432.312 114.43 431.692 114.43C431.092 114.43 430.582 114.63 430.162 115.03C429.762 115.43 429.562 115.96 429.562 116.62C429.562 117.26 429.762 117.8 430.162 118.24C430.582 118.66 431.092 118.87 431.692 118.87ZM446.831 121.3C446.451 121.3 446.101 121.19 445.781 120.97C445.481 120.75 445.281 120.42 445.181 119.98L443.381 113.68C443.361 113.6 443.341 113.53 443.321 113.47C443.321 113.41 443.321 113.35 443.321 113.29C443.321 112.93 443.451 112.63 443.711 112.39C443.971 112.13 444.291 112 444.671 112C445.331 112 445.731 112.3 445.871 112.9L446.801 117.31C446.861 117.53 446.951 117.64 447.071 117.64C447.211 117.64 447.311 117.54 447.371 117.34L448.661 113.53C448.781 113.19 448.971 112.94 449.231 112.78C449.491 112.62 449.761 112.54 450.041 112.54C450.321 112.54 450.591 112.62 450.851 112.78C451.131 112.94 451.311 113.19 451.391 113.53L452.651 117.34C452.711 117.54 452.801 117.64 452.921 117.64C453.041 117.64 453.131 117.53 453.191 117.31L454.121 112.9C454.261 112.3 454.661 112 455.321 112C455.701 112 456.021 112.13 456.281 112.39C456.541 112.63 456.671 112.93 456.671 113.29C456.671 113.35 456.661 113.41 456.641 113.47C456.641 113.53 456.631 113.6 456.611 113.68L454.811 119.98C454.691 120.42 454.471 120.75 454.151 120.97C453.851 121.19 453.511 121.3 453.131 121.3C452.791 121.3 452.471 121.2 452.171 121C451.871 120.78 451.641 120.45 451.481 120.01L450.281 116.47C450.221 116.25 450.131 116.14 450.011 116.14C449.871 116.14 449.771 116.25 449.711 116.47L448.511 120.01C448.371 120.45 448.141 120.78 447.821 121C447.521 121.2 447.191 121.3 446.831 121.3ZM462.397 121.3C461.037 121.3 459.887 120.9 458.947 120.1C458.027 119.28 457.567 118.16 457.567 116.74C457.567 115.26 458.017 114.1 458.917 113.26C459.837 112.42 460.987 112 462.367 112C463.347 112 464.157 112.18 464.797 112.54C465.437 112.9 465.917 113.36 466.237 113.92C466.557 114.48 466.717 115.07 466.717 115.69C466.717 116.73 466.257 117.25 465.337 117.25H460.357C460.197 117.25 460.117 117.35 460.117 117.55C460.117 118.01 460.367 118.38 460.867 118.66C461.387 118.92 461.967 119.05 462.607 119.05C463.007 119.05 463.407 119 463.807 118.9C464.207 118.78 464.557 118.61 464.857 118.39C465.057 118.25 465.267 118.18 465.487 118.18C465.787 118.18 466.037 118.29 466.237 118.51C466.457 118.73 466.567 118.99 466.567 119.29C466.567 119.65 466.377 119.99 465.997 120.31C465.637 120.61 465.107 120.85 464.407 121.03C463.727 121.21 463.057 121.3 462.397 121.3ZM463.957 115.51C463.997 115.51 464.047 115.5 464.107 115.48C464.187 115.46 464.227 115.39 464.227 115.27C464.227 114.97 464.037 114.7 463.657 114.46C463.297 114.2 462.827 114.07 462.247 114.07C461.627 114.07 461.117 114.21 460.717 114.49C460.337 114.75 460.147 115.02 460.147 115.3C460.147 115.44 460.227 115.51 460.387 115.51H463.957ZM473.369 121.3C472.469 121.3 471.709 121.02 471.089 120.46C470.909 121.02 470.499 121.3 469.859 121.3C469.479 121.3 469.159 121.19 468.899 120.97C468.639 120.75 468.509 120.47 468.509 120.13V108.97C468.509 108.65 468.629 108.38 468.869 108.16C469.129 107.92 469.459 107.8 469.859 107.8C470.239 107.8 470.549 107.92 470.789 108.16C471.029 108.38 471.149 108.66 471.149 109V112.93C471.829 112.31 472.599 112 473.459 112C474.779 112 475.829 112.42 476.609 113.26C477.409 114.08 477.809 115.2 477.809 116.62C477.809 118.04 477.409 119.18 476.609 120.04C475.809 120.88 474.729 121.3 473.369 121.3ZM473.159 118.87C473.779 118.87 474.269 118.66 474.629 118.24C475.009 117.8 475.199 117.26 475.199 116.62C475.199 115.96 475.009 115.43 474.629 115.03C474.269 114.63 473.779 114.43 473.159 114.43C472.559 114.43 472.069 114.63 471.689 115.03C471.329 115.43 471.149 115.96 471.149 116.62C471.149 117.26 471.329 117.8 471.689 118.24C472.069 118.66 472.559 118.87 473.159 118.87Z" fill="black" fill-opacity="0.44"/>
<path d="M153.256 144.19C152.876 144.49 152.296 144.75 151.516 144.97C150.736 145.19 149.976 145.3 149.236 145.3C147.996 145.3 146.886 145.03 145.906 144.49C144.926 143.93 144.156 143.16 143.596 142.18C143.036 141.2 142.756 140.09 142.756 138.85C142.756 137.55 143.026 136.43 143.566 135.49C144.126 134.55 144.896 133.83 145.876 133.33C146.856 132.81 147.996 132.55 149.296 132.55C149.836 132.55 150.376 132.6 150.916 132.7C151.476 132.8 151.986 132.96 152.446 133.18C152.686 133.3 152.856 133.46 152.956 133.66C153.076 133.84 153.136 134.04 153.136 134.26C153.136 134.58 153.016 134.88 152.776 135.16C152.556 135.42 152.256 135.55 151.876 135.55C151.716 135.55 151.546 135.52 151.366 135.46C151.006 135.32 150.616 135.21 150.196 135.13C149.776 135.03 149.406 134.98 149.086 134.98C148.046 134.98 147.176 135.33 146.476 136.03C145.796 136.73 145.456 137.67 145.456 138.85C145.456 140.11 145.806 141.1 146.506 141.82C147.226 142.54 148.146 142.9 149.266 142.9C149.726 142.9 150.216 142.82 150.736 142.66C151.256 142.5 151.676 142.3 151.996 142.06C152.216 141.92 152.456 141.85 152.716 141.85C153.056 141.85 153.326 141.97 153.526 142.21C153.746 142.43 153.856 142.71 153.856 143.05C153.856 143.49 153.656 143.87 153.256 144.19ZM157.007 145.21C156.627 145.21 156.307 145.1 156.047 144.88C155.787 144.66 155.657 144.38 155.657 144.04V137.32C155.657 137 155.777 136.73 156.017 136.51C156.277 136.27 156.607 136.15 157.007 136.15C157.367 136.15 157.657 136.26 157.877 136.48C158.117 136.68 158.257 136.93 158.297 137.23C158.517 136.89 158.817 136.6 159.197 136.36C159.577 136.12 159.977 136 160.397 136C160.657 136 160.907 136.03 161.147 136.09C161.427 136.17 161.657 136.33 161.837 136.57C162.017 136.79 162.107 137.05 162.107 137.35C162.107 137.77 161.967 138.12 161.687 138.4C161.427 138.66 161.117 138.75 160.757 138.67C160.497 138.61 160.237 138.58 159.977 138.58C159.517 138.58 159.137 138.74 158.837 139.06C158.537 139.38 158.357 140.03 158.297 141.01V144.01C158.297 144.35 158.167 144.64 157.907 144.88C157.667 145.1 157.367 145.21 157.007 145.21ZM167.387 145.3C166.027 145.3 164.877 144.9 163.937 144.1C163.017 143.28 162.557 142.16 162.557 140.74C162.557 139.26 163.007 138.1 163.907 137.26C164.827 136.42 165.977 136 167.357 136C168.337 136 169.147 136.18 169.787 136.54C170.427 136.9 170.907 137.36 171.227 137.92C171.547 138.48 171.707 139.07 171.707 139.69C171.707 140.73 171.247 141.25 170.327 141.25H165.347C165.187 141.25 165.107 141.35 165.107 141.55C165.107 142.01 165.357 142.38 165.857 142.66C166.377 142.92 166.957 143.05 167.597 143.05C167.997 143.05 168.397 143 168.797 142.9C169.197 142.78 169.547 142.61 169.847 142.39C170.047 142.25 170.257 142.18 170.477 142.18C170.777 142.18 171.027 142.29 171.227 142.51C171.447 142.73 171.557 142.99 171.557 143.29C171.557 143.65 171.367 143.99 170.987 144.31C170.627 144.61 170.097 144.85 169.397 145.03C168.717 145.21 168.047 145.3 167.387 145.3ZM168.947 139.51C168.987 139.51 169.037 139.5 169.097 139.48C169.177 139.46 169.217 139.39 169.217 139.27C169.217 138.97 169.027 138.7 168.647 138.46C168.287 138.2 167.817 138.07 167.237 138.07C166.617 138.07 166.107 138.21 165.707 138.49C165.327 138.75 165.137 139.02 165.137 139.3C165.137 139.44 165.217 139.51 165.377 139.51H168.947ZM177.692 145.3C176.352 145.3 175.262 144.88 174.422 144.04C173.602 143.18 173.192 142.04 173.192 140.62C173.192 139.2 173.592 138.08 174.392 137.26C175.212 136.42 176.282 136 177.602 136C178.542 136 179.362 136.33 180.062 136.99C180.142 136.75 180.292 136.55 180.512 136.39C180.732 136.23 180.992 136.15 181.292 136.15C181.692 136.15 182.012 136.27 182.252 136.51C182.512 136.73 182.642 137 182.642 137.32V144.13C182.642 144.47 182.512 144.75 182.252 144.97C182.012 145.19 181.692 145.3 181.292 145.3C180.632 145.3 180.222 145.01 180.062 144.43C179.422 145.01 178.632 145.3 177.692 145.3ZM177.902 142.87C178.542 142.87 179.052 142.66 179.432 142.24C179.812 141.8 180.002 141.26 180.002 140.62C180.002 139.96 179.812 139.43 179.432 139.03C179.052 138.63 178.542 138.43 177.902 138.43C177.282 138.43 176.772 138.63 176.372 139.03C175.992 139.43 175.802 139.96 175.802 140.62C175.802 141.26 175.992 141.8 176.372 142.24C176.772 142.66 177.282 142.87 177.902 142.87ZM194.651 145.3C193.791 145.3 193.081 145.05 192.521 144.55C191.961 144.05 191.681 143.28 191.681 142.24V139C191.681 138.8 191.581 138.7 191.381 138.7H190.931C190.571 138.7 190.301 138.59 190.121 138.37C189.941 138.15 189.851 137.87 189.851 137.53C189.851 137.17 189.941 136.88 190.121 136.66C190.301 136.42 190.571 136.3 190.931 136.3H191.381C191.581 136.3 191.681 136.2 191.681 136V133.78C191.681 133.44 191.801 133.15 192.041 132.91C192.281 132.67 192.591 132.55 192.971 132.55C193.351 132.55 193.661 132.67 193.901 132.91C194.161 133.13 194.291 133.42 194.291 133.78V136C194.291 136.2 194.391 136.3 194.591 136.3H195.701C196.041 136.3 196.321 136.42 196.541 136.66C196.781 136.9 196.901 137.19 196.901 137.53C196.901 137.87 196.781 138.15 196.541 138.37C196.321 138.59 196.031 138.7 195.671 138.7H194.591C194.391 138.7 194.291 138.8 194.291 139V141.82C194.291 142.18 194.351 142.43 194.471 142.57C194.611 142.71 194.781 142.78 194.981 142.78C195.061 142.78 195.221 142.76 195.461 142.72C195.701 142.66 195.851 142.63 195.911 142.63C196.231 142.63 196.501 142.75 196.721 142.99C196.941 143.23 197.051 143.52 197.051 143.86C197.051 144.12 196.971 144.36 196.811 144.58C196.671 144.8 196.441 144.96 196.121 145.06C195.861 145.14 195.611 145.2 195.371 145.24C195.131 145.28 194.891 145.3 194.651 145.3ZM204.458 137.29C204.458 136.91 204.578 136.6 204.818 136.36C205.078 136.12 205.398 136 205.778 136C206.158 136 206.468 136.13 206.708 136.39C206.968 136.63 207.098 136.93 207.098 137.29V141.52C207.098 142.34 206.888 143.04 206.468 143.62C206.048 144.18 205.508 144.6 204.848 144.88C204.188 145.16 203.488 145.3 202.748 145.3C202.028 145.3 201.338 145.16 200.678 144.88C200.018 144.6 199.468 144.18 199.028 143.62C198.608 143.04 198.398 142.34 198.398 141.52V137.29C198.398 136.91 198.518 136.6 198.758 136.36C199.018 136.12 199.338 136 199.718 136C200.098 136 200.408 136.13 200.648 136.39C200.908 136.63 201.038 136.93 201.038 137.29V141.4C201.038 141.82 201.198 142.17 201.518 142.45C201.838 142.73 202.248 142.87 202.748 142.87C203.248 142.87 203.658 142.73 203.978 142.45C204.298 142.17 204.458 141.82 204.458 141.4V137.29ZM220.224 145.3C219.344 145.3 218.604 145.03 218.004 144.49V148.15C218.004 148.49 217.874 148.77 217.614 148.99C217.374 149.23 217.074 149.35 216.714 149.35C216.334 149.35 216.014 149.24 215.754 149.02C215.494 148.8 215.364 148.52 215.364 148.18V137.32C215.364 137 215.484 136.73 215.724 136.51C215.984 136.27 216.314 136.15 216.714 136.15C217.014 136.15 217.274 136.23 217.494 136.39C217.714 136.55 217.864 136.75 217.944 136.99C218.624 136.33 219.414 136 220.314 136C221.634 136 222.684 136.42 223.464 137.26C224.264 138.08 224.664 139.2 224.664 140.62C224.664 142.04 224.264 143.18 223.464 144.04C222.664 144.88 221.584 145.3 220.224 145.3ZM220.014 142.87C220.634 142.87 221.124 142.66 221.484 142.24C221.864 141.8 222.054 141.26 222.054 140.62C222.054 139.96 221.864 139.43 221.484 139.03C221.124 138.63 220.634 138.43 220.014 138.43C219.414 138.43 218.924 138.63 218.544 139.03C218.184 139.43 218.004 139.96 218.004 140.62C218.004 141.26 218.184 141.8 218.544 142.24C218.924 142.66 219.414 142.87 220.014 142.87ZM230.661 145.3C229.321 145.3 228.231 144.88 227.391 144.04C226.571 143.18 226.161 142.04 226.161 140.62C226.161 139.2 226.561 138.08 227.361 137.26C228.181 136.42 229.251 136 230.571 136C231.511 136 232.331 136.33 233.031 136.99C233.111 136.75 233.261 136.55 233.481 136.39C233.701 136.23 233.961 136.15 234.261 136.15C234.661 136.15 234.981 136.27 235.221 136.51C235.481 136.73 235.611 137 235.611 137.32V144.13C235.611 144.47 235.481 144.75 235.221 144.97C234.981 145.19 234.661 145.3 234.261 145.3C233.601 145.3 233.191 145.01 233.031 144.43C232.391 145.01 231.601 145.3 230.661 145.3ZM230.871 142.87C231.511 142.87 232.021 142.66 232.401 142.24C232.781 141.8 232.971 141.26 232.971 140.62C232.971 139.96 232.781 139.43 232.401 139.03C232.021 138.63 231.511 138.43 230.871 138.43C230.251 138.43 229.741 138.63 229.341 139.03C228.961 139.43 228.771 139.96 228.771 140.62C228.771 141.26 228.961 141.8 229.341 142.24C229.741 142.66 230.251 142.87 230.871 142.87ZM241.644 149.35C241.084 149.35 240.544 149.29 240.024 149.17C239.504 149.07 239.034 148.91 238.614 148.69C238.134 148.43 237.894 148.03 237.894 147.49C237.894 147.15 238.014 146.85 238.254 146.59C238.494 146.35 238.774 146.23 239.094 146.23C239.354 146.23 239.584 146.29 239.784 146.41C240.104 146.59 240.434 146.72 240.774 146.8C241.134 146.88 241.484 146.92 241.824 146.92C242.584 146.92 243.144 146.75 243.504 146.41C243.884 146.07 244.074 145.62 244.074 145.06V144.37C243.434 144.99 242.644 145.3 241.704 145.3C240.364 145.3 239.284 144.88 238.464 144.04C237.664 143.18 237.264 142.04 237.264 140.62C237.264 139.2 237.654 138.08 238.434 137.26C239.234 136.42 240.294 136 241.614 136C242.574 136 243.404 136.37 244.104 137.11C244.164 136.83 244.304 136.6 244.524 136.42C244.764 136.24 245.054 136.15 245.394 136.15C245.794 136.15 246.114 136.27 246.354 136.51C246.594 136.75 246.714 137.05 246.714 137.41V145.12C246.714 146.4 246.264 147.42 245.364 148.18C244.484 148.96 243.244 149.35 241.644 149.35ZM241.914 142.87C242.514 142.87 242.994 142.66 243.354 142.24C243.734 141.8 243.924 141.26 243.924 140.62C243.924 139.96 243.734 139.43 243.354 139.03C242.994 138.63 242.514 138.43 241.914 138.43C241.294 138.43 240.794 138.63 240.414 139.03C240.054 139.43 239.874 139.96 239.874 140.62C239.874 141.26 240.054 141.8 240.414 142.24C240.794 142.66 241.294 142.87 241.914 142.87ZM250.201 145.3C249.821 145.3 249.501 145.19 249.241 144.97C248.981 144.75 248.851 144.47 248.851 144.13V137.32C248.851 137 248.971 136.73 249.211 136.51C249.471 136.27 249.801 136.15 250.201 136.15C250.601 136.15 250.911 136.27 251.131 136.51C251.371 136.73 251.491 137.01 251.491 137.35V144.1C251.491 144.44 251.361 144.73 251.101 144.97C250.861 145.19 250.561 145.3 250.201 145.3ZM250.201 134.65C249.781 134.65 249.421 134.52 249.121 134.26C248.821 133.98 248.671 133.63 248.671 133.21C248.671 132.83 248.821 132.5 249.121 132.22C249.421 131.94 249.781 131.8 250.201 131.8C250.601 131.8 250.941 131.94 251.221 132.22C251.521 132.5 251.671 132.83 251.671 133.21C251.671 133.63 251.521 133.98 251.221 134.26C250.941 134.52 250.601 134.65 250.201 134.65ZM261.449 145.3C261.069 145.3 260.749 145.19 260.489 144.97C260.249 144.75 260.129 144.47 260.129 144.13V140.47C260.129 139.73 259.959 139.2 259.619 138.88C259.299 138.56 258.899 138.4 258.419 138.4C257.919 138.4 257.499 138.56 257.159 138.88C256.839 139.2 256.639 139.57 256.559 139.99V144.01C256.559 144.35 256.429 144.64 256.169 144.88C255.929 145.1 255.629 145.21 255.269 145.21C254.889 145.21 254.569 145.1 254.309 144.88C254.049 144.66 253.919 144.38 253.919 144.04V137.32C253.919 137 254.039 136.73 254.279 136.51C254.539 136.27 254.869 136.15 255.269 136.15C255.589 136.15 255.859 136.24 256.079 136.42C256.299 136.58 256.449 136.79 256.529 137.05C257.069 136.35 257.889 136 258.989 136C260.109 136 261.019 136.33 261.719 136.99C262.419 137.65 262.769 138.7 262.769 140.14V144.19C262.769 144.51 262.639 144.78 262.379 145C262.139 145.2 261.829 145.3 261.449 145.3ZM268.922 145.3C267.582 145.3 266.492 144.88 265.652 144.04C264.832 143.18 264.422 142.04 264.422 140.62C264.422 139.2 264.822 138.08 265.622 137.26C266.442 136.42 267.512 136 268.832 136C269.772 136 270.592 136.33 271.292 136.99C271.372 136.75 271.522 136.55 271.742 136.39C271.962 136.23 272.222 136.15 272.522 136.15C272.922 136.15 273.242 136.27 273.482 136.51C273.742 136.73 273.872 137 273.872 137.32V144.13C273.872 144.47 273.742 144.75 273.482 144.97C273.242 145.19 272.922 145.3 272.522 145.3C271.862 145.3 271.452 145.01 271.292 144.43C270.652 145.01 269.862 145.3 268.922 145.3ZM269.132 142.87C269.772 142.87 270.282 142.66 270.662 142.24C271.042 141.8 271.232 141.26 271.232 140.62C271.232 139.96 271.042 139.43 270.662 139.03C270.282 138.63 269.772 138.43 269.132 138.43C268.512 138.43 268.002 138.63 267.602 139.03C267.222 139.43 267.032 139.96 267.032 140.62C267.032 141.26 267.222 141.8 267.602 142.24C268.002 142.66 268.512 142.87 269.132 142.87ZM286.272 145.3C285.412 145.3 284.622 145.1 283.902 144.7C283.182 144.3 282.602 143.75 282.162 143.05C281.742 142.33 281.532 141.52 281.532 140.62C281.532 139.7 281.742 138.9 282.162 138.22C282.602 137.52 283.182 136.98 283.902 136.6C284.622 136.2 285.412 136 286.272 136C287.152 136 287.942 136.2 288.642 136.6C289.362 136.98 289.932 137.52 290.352 138.22C290.772 138.9 290.982 139.7 290.982 140.62C290.982 141.52 290.772 142.33 290.352 143.05C289.932 143.75 289.362 144.3 288.642 144.7C287.942 145.1 287.152 145.3 286.272 145.3ZM286.272 142.87C286.892 142.87 287.392 142.66 287.772 142.24C288.172 141.8 288.372 141.26 288.372 140.62C288.372 139.96 288.172 139.43 287.772 139.03C287.392 138.63 286.892 138.43 286.272 138.43C285.672 138.43 285.162 138.63 284.742 139.03C284.342 139.43 284.142 139.96 284.142 140.62C284.142 141.26 284.342 141.8 284.742 142.24C285.162 142.66 285.672 142.87 286.272 142.87ZM297.656 145.3C296.756 145.3 295.996 145.02 295.376 144.46C295.196 145.02 294.786 145.3 294.146 145.3C293.766 145.3 293.446 145.19 293.186 144.97C292.926 144.75 292.796 144.47 292.796 144.13V132.97C292.796 132.65 292.916 132.38 293.156 132.16C293.416 131.92 293.746 131.8 294.146 131.8C294.526 131.8 294.836 131.92 295.076 132.16C295.316 132.38 295.436 132.66 295.436 133V136.93C296.116 136.31 296.886 136 297.746 136C299.066 136 300.116 136.42 300.896 137.26C301.696 138.08 302.096 139.2 302.096 140.62C302.096 142.04 301.696 143.18 300.896 144.04C300.096 144.88 299.016 145.3 297.656 145.3ZM297.446 142.87C298.066 142.87 298.556 142.66 298.916 142.24C299.296 141.8 299.486 141.26 299.486 140.62C299.486 139.96 299.296 139.43 298.916 139.03C298.556 138.63 298.066 138.43 297.446 138.43C296.846 138.43 296.356 138.63 295.976 139.03C295.616 139.43 295.436 139.96 295.436 140.62C295.436 141.26 295.616 141.8 295.976 142.24C296.356 142.66 296.846 142.87 297.446 142.87ZM307.649 145.3C306.789 145.3 306.079 145.05 305.519 144.55C304.959 144.05 304.679 143.28 304.679 142.24V139C304.679 138.8 304.579 138.7 304.379 138.7H303.929C303.569 138.7 303.299 138.59 303.119 138.37C302.939 138.15 302.849 137.87 302.849 137.53C302.849 137.17 302.939 136.88 303.119 136.66C303.299 136.42 303.569 136.3 303.929 136.3H304.379C304.579 136.3 304.679 136.2 304.679 136V133.78C304.679 133.44 304.799 133.15 305.039 132.91C305.279 132.67 305.589 132.55 305.969 132.55C306.349 132.55 306.659 132.67 306.899 132.91C307.159 133.13 307.289 133.42 307.289 133.78V136C307.289 136.2 307.389 136.3 307.589 136.3H308.699C309.039 136.3 309.319 136.42 309.539 136.66C309.779 136.9 309.899 137.19 309.899 137.53C309.899 137.87 309.779 138.15 309.539 138.37C309.319 138.59 309.029 138.7 308.669 138.7H307.589C307.389 138.7 307.289 138.8 307.289 139V141.82C307.289 142.18 307.349 142.43 307.469 142.57C307.609 142.71 307.779 142.78 307.979 142.78C308.059 142.78 308.219 142.76 308.459 142.72C308.699 142.66 308.849 142.63 308.909 142.63C309.229 142.63 309.499 142.75 309.719 142.99C309.939 143.23 310.049 143.52 310.049 143.86C310.049 144.12 309.969 144.36 309.809 144.58C309.669 144.8 309.439 144.96 309.119 145.06C308.859 145.14 308.609 145.2 308.369 145.24C308.129 145.28 307.889 145.3 307.649 145.3ZM312.926 145.3C312.546 145.3 312.226 145.19 311.966 144.97C311.706 144.75 311.576 144.47 311.576 144.13V137.32C311.576 137 311.696 136.73 311.936 136.51C312.196 136.27 312.526 136.15 312.926 136.15C313.326 136.15 313.636 136.27 313.856 136.51C314.096 136.73 314.216 137.01 314.216 137.35V144.1C314.216 144.44 314.086 144.73 313.826 144.97C313.586 145.19 313.286 145.3 312.926 145.3ZM312.926 134.65C312.506 134.65 312.146 134.52 311.846 134.26C311.546 133.98 311.396 133.63 311.396 133.21C311.396 132.83 311.546 132.5 311.846 132.22C312.146 131.94 312.506 131.8 312.926 131.8C313.326 131.8 313.666 131.94 313.946 132.22C314.246 132.5 314.396 132.83 314.396 133.21C314.396 133.63 314.246 133.98 313.946 134.26C313.666 134.52 313.326 134.65 312.926 134.65ZM320.873 145.3C319.513 145.3 318.363 144.9 317.423 144.1C316.503 143.28 316.043 142.16 316.043 140.74C316.043 139.26 316.493 138.1 317.393 137.26C318.313 136.42 319.463 136 320.843 136C321.823 136 322.633 136.18 323.273 136.54C323.913 136.9 324.393 137.36 324.713 137.92C325.033 138.48 325.193 139.07 325.193 139.69C325.193 140.73 324.733 141.25 323.813 141.25H318.833C318.673 141.25 318.593 141.35 318.593 141.55C318.593 142.01 318.843 142.38 319.343 142.66C319.863 142.92 320.443 143.05 321.083 143.05C321.483 143.05 321.883 143 322.283 142.9C322.683 142.78 323.033 142.61 323.333 142.39C323.533 142.25 323.743 142.18 323.963 142.18C324.263 142.18 324.513 142.29 324.713 142.51C324.933 142.73 325.043 142.99 325.043 143.29C325.043 143.65 324.853 143.99 324.473 144.31C324.113 144.61 323.583 144.85 322.883 145.03C322.203 145.21 321.533 145.3 320.873 145.3ZM322.433 139.51C322.473 139.51 322.523 139.5 322.583 139.48C322.663 139.46 322.703 139.39 322.703 139.27C322.703 138.97 322.513 138.7 322.133 138.46C321.773 138.2 321.303 138.07 320.723 138.07C320.103 138.07 319.593 138.21 319.193 138.49C318.813 138.75 318.623 139.02 318.623 139.3C318.623 139.44 318.703 139.51 318.863 139.51H322.433ZM334.515 145.3C334.135 145.3 333.815 145.19 333.555 144.97C333.315 144.75 333.195 144.47 333.195 144.13V140.47C333.195 139.73 333.025 139.2 332.685 138.88C332.365 138.56 331.965 138.4 331.485 138.4C330.985 138.4 330.565 138.56 330.225 138.88C329.905 139.2 329.705 139.57 329.625 139.99V144.01C329.625 144.35 329.495 144.64 329.235 144.88C328.995 145.1 328.695 145.21 328.335 145.21C327.955 145.21 327.635 145.1 327.375 144.88C327.115 144.66 326.985 144.38 326.985 144.04V137.32C326.985 137 327.105 136.73 327.345 136.51C327.605 136.27 327.935 136.15 328.335 136.15C328.655 136.15 328.925 136.24 329.145 136.42C329.365 136.58 329.515 136.79 329.595 137.05C330.135 136.35 330.955 136 332.055 136C333.175 136 334.085 136.33 334.785 136.99C335.485 137.65 335.835 138.7 335.835 140.14V144.19C335.835 144.51 335.705 144.78 335.445 145C335.205 145.2 334.895 145.3 334.515 145.3ZM342.319 145.3C340.959 145.3 339.809 144.9 338.869 144.1C337.949 143.28 337.489 142.16 337.489 140.74C337.489 139.26 337.939 138.1 338.839 137.26C339.759 136.42 340.909 136 342.289 136C343.269 136 344.079 136.18 344.719 136.54C345.359 136.9 345.839 137.36 346.159 137.92C346.479 138.48 346.639 139.07 346.639 139.69C346.639 140.73 346.179 141.25 345.259 141.25H340.279C340.119 141.25 340.039 141.35 340.039 141.55C340.039 142.01 340.289 142.38 340.789 142.66C341.309 142.92 341.889 143.05 342.529 143.05C342.929 143.05 343.329 143 343.729 142.9C344.129 142.78 344.479 142.61 344.779 142.39C344.979 142.25 345.189 142.18 345.409 142.18C345.709 142.18 345.959 142.29 346.159 142.51C346.379 142.73 346.489 142.99 346.489 143.29C346.489 143.65 346.299 143.99 345.919 144.31C345.559 144.61 345.029 144.85 344.329 145.03C343.649 145.21 342.979 145.3 342.319 145.3ZM343.879 139.51C343.919 139.51 343.969 139.5 344.029 139.48C344.109 139.46 344.149 139.39 344.149 139.27C344.149 138.97 343.959 138.7 343.579 138.46C343.219 138.2 342.749 138.07 342.169 138.07C341.549 138.07 341.039 138.21 340.639 138.49C340.259 138.75 340.069 139.02 340.069 139.3C340.069 139.44 340.149 139.51 340.309 139.51H343.879ZM353.536 137.2C353.536 136.8 353.676 136.5 353.956 136.3C354.236 136.1 354.556 136 354.916 136C355.196 136 355.436 136.08 355.636 136.24C355.856 136.38 356.006 136.58 356.086 136.84L357.946 141.37C358.046 141.63 358.186 141.76 358.366 141.76C358.546 141.76 358.676 141.63 358.756 141.37L360.376 136.84C360.476 136.56 360.636 136.35 360.856 136.21C361.096 136.07 361.346 136 361.606 136C361.946 136 362.256 136.11 362.536 136.33C362.836 136.55 362.986 136.84 362.986 137.2C362.986 137.4 362.946 137.59 362.866 137.77L358.186 148.57C358.046 148.87 357.866 149.08 357.646 149.2C357.446 149.34 357.236 149.41 357.016 149.41C356.656 149.41 356.326 149.28 356.026 149.02C355.746 148.78 355.606 148.49 355.606 148.15C355.606 147.97 355.646 147.81 355.726 147.67L357.346 144.79C357.006 144.69 356.736 144.44 356.536 144.04L353.626 137.74C353.566 137.56 353.536 137.38 353.536 137.2ZM374.241 145.3C373.381 145.3 372.671 145.05 372.111 144.55C371.551 144.05 371.271 143.28 371.271 142.24V139C371.271 138.8 371.171 138.7 370.971 138.7H370.521C370.161 138.7 369.891 138.59 369.711 138.37C369.531 138.15 369.441 137.87 369.441 137.53C369.441 137.17 369.531 136.88 369.711 136.66C369.891 136.42 370.161 136.3 370.521 136.3H370.971C371.171 136.3 371.271 136.2 371.271 136V133.78C371.271 133.44 371.391 133.15 371.631 132.91C371.871 132.67 372.181 132.55 372.561 132.55C372.941 132.55 373.251 132.67 373.491 132.91C373.751 133.13 373.881 133.42 373.881 133.78V136C373.881 136.2 373.981 136.3 374.181 136.3H375.291C375.631 136.3 375.911 136.42 376.131 136.66C376.371 136.9 376.491 137.19 376.491 137.53C376.491 137.87 376.371 138.15 376.131 138.37C375.911 138.59 375.621 138.7 375.261 138.7H374.181C373.981 138.7 373.881 138.8 373.881 139V141.82C373.881 142.18 373.941 142.43 374.061 142.57C374.201 142.71 374.371 142.78 374.571 142.78C374.651 142.78 374.811 142.76 375.051 142.72C375.291 142.66 375.441 142.63 375.501 142.63C375.821 142.63 376.091 142.75 376.311 142.99C376.531 143.23 376.641 143.52 376.641 143.86C376.641 144.12 376.561 144.36 376.401 144.58C376.261 144.8 376.031 144.96 375.711 145.06C375.451 145.14 375.201 145.2 374.961 145.24C374.721 145.28 374.481 145.3 374.241 145.3ZM384.048 137.29C384.048 136.91 384.168 136.6 384.408 136.36C384.668 136.12 384.988 136 385.368 136C385.748 136 386.058 136.13 386.298 136.39C386.558 136.63 386.688 136.93 386.688 137.29V141.52C386.688 142.34 386.478 143.04 386.058 143.62C385.638 144.18 385.098 144.6 384.438 144.88C383.778 145.16 383.078 145.3 382.338 145.3C381.618 145.3 380.928 145.16 380.268 144.88C379.608 144.6 379.058 144.18 378.618 143.62C378.198 143.04 377.988 142.34 377.988 141.52V137.29C377.988 136.91 378.108 136.6 378.348 136.36C378.608 136.12 378.928 136 379.308 136C379.688 136 379.998 136.13 380.238 136.39C380.498 136.63 380.628 136.93 380.628 137.29V141.4C380.628 141.82 380.788 142.17 381.108 142.45C381.428 142.73 381.838 142.87 382.338 142.87C382.838 142.87 383.248 142.73 383.568 142.45C383.888 142.17 384.048 141.82 384.048 141.4V137.29ZM396.334 145.3C395.954 145.3 395.634 145.19 395.374 144.97C395.114 144.75 394.984 144.47 394.984 144.13V132.97C394.984 132.65 395.104 132.38 395.344 132.16C395.604 131.92 395.934 131.8 396.334 131.8C396.714 131.8 397.024 131.92 397.264 132.16C397.504 132.38 397.624 132.66 397.624 133V144.1C397.624 144.44 397.494 144.73 397.234 144.97C396.994 145.19 396.694 145.3 396.334 145.3ZM401.432 145.3C401.052 145.3 400.732 145.19 400.472 144.97C400.212 144.75 400.082 144.47 400.082 144.13V137.32C400.082 137 400.202 136.73 400.442 136.51C400.702 136.27 401.032 136.15 401.432 136.15C401.832 136.15 402.142 136.27 402.362 136.51C402.602 136.73 402.722 137.01 402.722 137.35V144.1C402.722 144.44 402.592 144.73 402.332 144.97C402.092 145.19 401.792 145.3 401.432 145.3ZM401.432 134.65C401.012 134.65 400.652 134.52 400.352 134.26C400.052 133.98 399.902 133.63 399.902 133.21C399.902 132.83 400.052 132.5 400.352 132.22C400.652 131.94 401.012 131.8 401.432 131.8C401.832 131.8 402.172 131.94 402.452 132.22C402.752 132.5 402.902 132.83 402.902 133.21C402.902 133.63 402.752 133.98 402.452 134.26C402.172 134.52 401.832 134.65 401.432 134.65ZM412.679 145.3C412.299 145.3 411.979 145.19 411.719 144.97C411.479 144.75 411.359 144.47 411.359 144.13V140.47C411.359 139.73 411.189 139.2 410.849 138.88C410.529 138.56 410.129 138.4 409.649 138.4C409.149 138.4 408.729 138.56 408.389 138.88C408.069 139.2 407.869 139.57 407.789 139.99V144.01C407.789 144.35 407.659 144.64 407.399 144.88C407.159 145.1 406.859 145.21 406.499 145.21C406.119 145.21 405.799 145.1 405.539 144.88C405.279 144.66 405.149 144.38 405.149 144.04V137.32C405.149 137 405.269 136.73 405.509 136.51C405.769 136.27 406.099 136.15 406.499 136.15C406.819 136.15 407.089 136.24 407.309 136.42C407.529 136.58 407.679 136.79 407.759 137.05C408.299 136.35 409.119 136 410.219 136C411.339 136 412.249 136.33 412.949 136.99C413.649 137.65 413.999 138.7 413.999 140.14V144.19C413.999 144.51 413.869 144.78 413.609 145C413.369 145.2 413.059 145.3 412.679 145.3ZM417.603 145.3C417.223 145.3 416.903 145.19 416.643 144.97C416.383 144.75 416.253 144.47 416.253 144.13V132.97C416.253 132.65 416.373 132.38 416.613 132.16C416.873 131.92 417.203 131.8 417.603 131.8C417.983 131.8 418.293 131.92 418.533 132.16C418.773 132.38 418.893 132.66 418.893 133V138.16C418.893 138.4 418.963 138.52 419.103 138.52C419.143 138.52 419.223 138.48 419.343 138.4L422.253 136.24C422.493 136.08 422.753 136 423.033 136C423.373 136 423.653 136.12 423.873 136.36C424.093 136.6 424.203 136.88 424.203 137.2C424.203 137.64 424.003 137.99 423.603 138.25L421.233 139.81C421.033 139.95 420.933 140.1 420.933 140.26C420.933 140.42 421.013 140.55 421.173 140.65L423.903 143.11C424.083 143.25 424.203 143.41 424.263 143.59C424.323 143.77 424.353 143.94 424.353 144.1C424.353 144.42 424.223 144.7 423.963 144.94C423.723 145.18 423.433 145.3 423.093 145.3C422.753 145.3 422.453 145.17 422.193 144.91L419.253 142.03C419.193 141.97 419.123 141.94 419.043 141.94C418.943 141.94 418.893 142.02 418.893 142.18V144.1C418.893 144.44 418.763 144.73 418.503 144.97C418.263 145.19 417.963 145.3 417.603 145.3Z" fill="black" fill-opacity="0.44"/>
<g filter="url(#filter0_d_251_2)">
<rect x="16" y="14" width="553" height="73" fill="white"/>
</g>
<path d="M69.2062 58.5C68.7729 58.5 68.3729 58.3667 68.0062 58.1C67.6729 57.8333 67.5062 57.45 67.5062 56.95V44.95C67.5062 44.3833 67.6729 43.9667 68.0062 43.7C68.3729 43.4 68.7729 43.25 69.2062 43.25C69.6396 43.25 70.0229 43.4 70.3562 43.7C70.7229 43.9667 70.9062 44.3833 70.9062 44.95V56.95C70.9062 57.45 70.7229 57.8333 70.3562 58.1C70.0229 58.3667 69.6396 58.5 69.2062 58.5ZM69.2562 40.5C68.6229 40.5 68.0729 40.3 67.6062 39.9C67.1729 39.4667 66.9562 38.95 66.9562 38.35C66.9562 37.7833 67.1729 37.3 67.6062 36.9C68.0729 36.4667 68.6229 36.25 69.2562 36.25C69.8562 36.25 70.3729 36.4667 70.8062 36.9C71.2396 37.3 71.4562 37.7833 71.4562 38.35C71.4562 38.95 71.2396 39.4667 70.8062 39.9C70.3729 40.3 69.8562 40.5 69.2562 40.5ZM81.4258 58.5C79.9924 58.5 78.7091 58.1667 77.5758 57.5C76.4424 56.8333 75.5591 55.9167 74.9258 54.75C74.2924 53.55 73.9758 52.2167 73.9758 50.75C73.9758 49.3167 74.2924 48.0333 74.9258 46.9C75.5591 45.7667 76.4424 44.8833 77.5758 44.25C78.7091 43.5833 79.9924 43.25 81.4258 43.25C82.3591 43.25 83.1924 43.4167 83.9258 43.75C84.6591 44.05 85.2924 44.45 85.8258 44.95C85.8924 44.4833 86.0924 44.1333 86.4258 43.9C86.7591 43.6333 87.1258 43.5 87.5258 43.5C87.9591 43.5 88.3424 43.65 88.6758 43.95C89.0424 44.2167 89.2258 44.6333 89.2258 45.2V56.95C89.2258 57.45 89.0424 57.8333 88.6758 58.1C88.3424 58.3667 87.9591 58.5 87.5258 58.5C87.0924 58.5 86.6924 58.3667 86.3258 58.1C85.9924 57.8333 85.8258 57.45 85.8258 56.95V56.75C85.2924 57.2833 84.6591 57.7 83.9258 58C83.1924 58.3333 82.3591 58.5 81.4258 58.5ZM81.7258 55.4C82.9924 55.4 83.9924 54.9833 84.7258 54.15C85.4591 53.2833 85.8258 52.15 85.8258 50.75C85.8258 49.4167 85.4591 48.35 84.7258 47.55C83.9924 46.75 82.9924 46.35 81.7258 46.35C80.4258 46.35 79.3758 46.75 78.5758 47.55C77.7758 48.35 77.3758 49.4167 77.3758 50.75C77.3758 52.15 77.7758 53.2833 78.5758 54.15C79.3758 54.9833 80.4258 55.4 81.7258 55.4ZM94.6933 58.5C94.26 58.5 93.86 58.3667 93.4933 58.1C93.16 57.8333 92.9933 57.45 92.9933 56.95V45.2C92.9933 44.6333 93.16 44.2167 93.4933 43.95C93.86 43.65 94.26 43.5 94.6933 43.5C95.0267 43.5 95.3433 43.5833 95.6433 43.75C95.9433 43.8833 96.16 44.1333 96.2933 44.5C96.36 44.7 96.3933 44.8833 96.3933 45.05C96.8933 44.5167 97.5433 44.0833 98.3433 43.75C99.1433 43.4167 99.9267 43.25 100.693 43.25C102.86 43.25 104.46 44.1167 105.493 45.85C105.893 45.15 106.543 44.55 107.443 44.05C108.377 43.5167 109.51 43.25 110.843 43.25C112.643 43.25 114.077 43.85 115.143 45.05C116.21 46.25 116.743 48.0167 116.743 50.35V56.95C116.743 57.45 116.56 57.8333 116.193 58.1C115.827 58.3667 115.443 58.5 115.043 58.5C114.61 58.5 114.21 58.3667 113.843 58.1C113.51 57.8333 113.343 57.45 113.343 56.95V50.65C113.343 47.7833 112.277 46.35 110.143 46.35C108.943 46.35 108.077 46.6667 107.543 47.3C107.01 47.9333 106.677 48.6833 106.543 49.55V56.95C106.543 57.45 106.36 57.8333 105.993 58.1C105.627 58.3667 105.243 58.5 104.843 58.5C104.41 58.5 104.01 58.3667 103.643 58.1C103.31 57.8333 103.143 57.45 103.143 56.95V50.65C103.143 49.1833 102.86 48.1 102.293 47.4C101.727 46.7 100.96 46.35 99.9933 46.35C98.56 46.35 97.5933 46.8 97.0933 47.7C96.6267 48.5667 96.3933 49.5333 96.3933 50.6V56.95C96.3933 57.45 96.21 57.8333 95.8433 58.1C95.51 58.3667 95.1267 58.5 94.6933 58.5ZM128.284 58.5C127.35 58.5 126.517 58.3333 125.784 58C125.05 57.7 124.417 57.2833 123.884 56.75V63.7C123.884 64.2 123.7 64.5833 123.334 64.85C123 65.1167 122.617 65.25 122.184 65.25C121.75 65.25 121.35 65.1167 120.984 64.85C120.65 64.5833 120.484 64.2 120.484 63.7V45.2C120.484 44.6333 120.65 44.2167 120.984 43.95C121.35 43.65 121.75 43.5 122.184 43.5C122.584 43.5 122.95 43.6333 123.284 43.9C123.617 44.1333 123.817 44.4833 123.884 44.95C124.417 44.45 125.05 44.05 125.784 43.75C126.517 43.4167 127.35 43.25 128.284 43.25C129.75 43.25 131.034 43.5833 132.134 44.25C133.267 44.8833 134.15 45.7667 134.784 46.9C135.417 48.0333 135.734 49.3167 135.734 50.75C135.734 52.2167 135.417 53.55 134.784 54.75C134.15 55.9167 133.267 56.8333 132.134 57.5C131.034 58.1667 129.75 58.5 128.284 58.5ZM127.984 55.4C129.284 55.4 130.334 54.9833 131.134 54.15C131.934 53.2833 132.334 52.15 132.334 50.75C132.334 49.4167 131.934 48.35 131.134 47.55C130.334 46.75 129.284 46.35 127.984 46.35C126.717 46.35 125.717 46.75 124.984 47.55C124.25 48.35 123.884 49.4167 123.884 50.75C123.884 52.15 124.25 53.2833 124.984 54.15C125.717 54.9833 126.717 55.4 127.984 55.4ZM141.795 58.75C141.162 58.75 140.612 58.5333 140.145 58.1C139.712 57.7 139.495 57.2167 139.495 56.65C139.495 56.05 139.712 55.55 140.145 55.15C140.612 54.7167 141.162 54.5 141.795 54.5C142.395 54.5 142.912 54.7167 143.345 55.15C143.779 55.55 143.995 56.05 143.995 56.65C143.995 57.2167 143.779 57.7 143.345 58.1C142.912 58.5333 142.395 58.75 141.795 58.75ZM161.305 58.5C160.872 58.5 160.472 58.3667 160.105 58.1C159.772 57.8333 159.605 57.45 159.605 56.95V50.65C159.605 49.1833 159.272 48.1 158.605 47.4C157.972 46.7 157.122 46.35 156.055 46.35C154.688 46.35 153.688 46.8 153.055 47.7C152.455 48.5667 152.155 49.5333 152.155 50.6V56.95C152.155 57.45 151.972 57.8333 151.605 58.1C151.272 58.3667 150.888 58.5 150.455 58.5C150.022 58.5 149.622 58.3667 149.255 58.1C148.922 57.8333 148.755 57.45 148.755 56.95V45.2C148.755 44.6333 148.922 44.2167 149.255 43.95C149.622 43.65 150.022 43.5 150.455 43.5C150.888 43.5 151.272 43.65 151.605 43.95C151.972 44.2167 152.155 44.6333 152.155 45.2C152.722 44.6333 153.455 44.1667 154.355 43.8C155.255 43.4333 156.105 43.25 156.905 43.25C158.772 43.25 160.255 43.85 161.355 45.05C162.455 46.25 163.005 48.0167 163.005 50.35V56.95C163.005 57.45 162.822 57.8333 162.455 58.1C162.088 58.3667 161.705 58.5 161.305 58.5ZM173.723 58.5C171.223 58.5 169.273 57.7833 167.873 56.35C166.473 54.9167 165.773 52.9833 165.773 50.55C165.773 48.4167 166.473 46.6667 167.873 45.3C169.306 43.9333 171.139 43.25 173.373 43.25C175.539 43.25 177.273 43.8833 178.573 45.15C179.873 46.3833 180.523 47.9167 180.523 49.75C180.523 50.4833 180.323 51.0333 179.923 51.4C179.556 51.7667 179.073 51.95 178.473 51.95H169.773C169.439 51.95 169.323 52.1333 169.423 52.5C169.689 53.4333 170.223 54.1667 171.023 54.7C171.856 55.2 172.789 55.45 173.823 55.45C174.589 55.45 175.323 55.35 176.023 55.15C176.756 54.95 177.389 54.65 177.923 54.25C178.089 54.1167 178.306 54.05 178.573 54.05C178.939 54.05 179.273 54.2167 179.573 54.55C179.873 54.85 180.023 55.2167 180.023 55.65C180.023 55.85 179.989 56.05 179.923 56.25C179.856 56.45 179.706 56.65 179.473 56.85C178.606 57.4833 177.673 57.9167 176.673 58.15C175.706 58.3833 174.723 58.5 173.723 58.5ZM176.623 49.35C176.823 49.35 176.923 49.25 176.923 49.05C176.923 48.2833 176.573 47.6167 175.873 47.05C175.206 46.4833 174.373 46.2 173.373 46.2C172.506 46.2 171.673 46.4333 170.873 46.9C170.106 47.3667 169.639 47.9833 169.473 48.75C169.473 48.75 169.473 48.7667 169.473 48.8C169.439 48.9333 169.423 49.05 169.423 49.15C169.456 49.25 169.606 49.3 169.873 49.3L176.623 49.35ZM189.171 58.5C187.871 58.5 186.804 58.1 185.971 57.3C185.137 56.5 184.721 55.3 184.721 53.7V47.35C184.721 47.0167 184.554 46.85 184.221 46.85H183.321C182.887 46.85 182.521 46.7167 182.221 46.45C181.921 46.15 181.771 45.7833 181.771 45.35C181.771 44.8833 181.921 44.5 182.221 44.2C182.521 43.9 182.887 43.75 183.321 43.75H184.221C184.554 43.75 184.721 43.5833 184.721 43.25V39.05C184.721 38.5833 184.871 38.2167 185.171 37.95C185.504 37.65 185.904 37.5 186.371 37.5C186.871 37.5 187.271 37.65 187.571 37.95C187.904 38.2167 188.071 38.5833 188.071 39.05V43.25C188.071 43.5833 188.237 43.75 188.571 43.75H191.271C191.671 43.75 192.021 43.9 192.321 44.2C192.621 44.5 192.771 44.8833 192.771 45.35C192.771 45.7833 192.621 46.15 192.321 46.45C192.054 46.7167 191.687 46.85 191.221 46.85H188.571C188.237 46.85 188.071 47.0167 188.071 47.35V53.25C188.071 54.65 188.637 55.35 189.771 55.35C190.104 55.35 190.454 55.3 190.821 55.2C191.187 55.1 191.437 55.05 191.571 55.05C192.037 55.05 192.387 55.2 192.621 55.5C192.887 55.8 193.021 56.15 193.021 56.55C193.021 56.85 192.937 57.15 192.771 57.45C192.604 57.7167 192.337 57.9167 191.971 58.05C191.604 58.1833 191.137 58.2833 190.571 58.35C190.037 58.45 189.571 58.5 189.171 58.5ZM197.232 58.5C196.799 58.5 196.399 58.3667 196.032 58.1C195.699 57.8333 195.532 57.45 195.532 56.95V37.95C195.532 37.3833 195.699 36.9667 196.032 36.7C196.399 36.4 196.799 36.25 197.232 36.25C197.666 36.25 198.049 36.4 198.382 36.7C198.749 36.9667 198.932 37.3833 198.932 37.95V56.95C198.932 57.45 198.749 57.8333 198.382 58.1C198.049 58.3667 197.666 58.5 197.232 58.5ZM204.802 58.5C204.369 58.5 203.969 58.3667 203.602 58.1C203.269 57.8333 203.102 57.45 203.102 56.95V44.95C203.102 44.3833 203.269 43.9667 203.602 43.7C203.969 43.4 204.369 43.25 204.802 43.25C205.235 43.25 205.619 43.4 205.952 43.7C206.319 43.9667 206.502 44.3833 206.502 44.95V56.95C206.502 57.45 206.319 57.8333 205.952 58.1C205.619 58.3667 205.235 58.5 204.802 58.5ZM204.852 40.5C204.219 40.5 203.669 40.3 203.202 39.9C202.769 39.4667 202.552 38.95 202.552 38.35C202.552 37.7833 202.769 37.3 203.202 36.9C203.669 36.4667 204.219 36.25 204.852 36.25C205.452 36.25 205.969 36.4667 206.402 36.9C206.835 37.3 207.052 37.7833 207.052 38.35C207.052 38.95 206.835 39.4667 206.402 39.9C205.969 40.3 205.452 40.5 204.852 40.5ZM213.671 58.5C213.171 58.5 212.771 58.35 212.471 58.05C212.171 57.75 212.021 57.3667 212.021 56.9V47.35C212.021 47.0167 211.855 46.85 211.521 46.85H210.371C209.938 46.85 209.571 46.7167 209.271 46.45C208.971 46.15 208.821 45.7833 208.821 45.35C208.821 44.8833 208.971 44.5 209.271 44.2C209.571 43.9 209.938 43.75 210.371 43.75H211.521C211.855 43.75 212.021 43.5833 212.021 43.25V41.95C212.021 40.2833 212.455 38.9667 213.321 38C214.221 37 215.488 36.5 217.121 36.5C217.488 36.5 217.855 36.55 218.221 36.65C218.621 36.7167 218.921 36.7833 219.121 36.85C219.755 37.0833 220.071 37.55 220.071 38.25C220.071 38.7833 219.905 39.2 219.571 39.5C219.271 39.7667 218.905 39.9 218.471 39.9C218.238 39.9 218.021 39.8667 217.821 39.8C217.621 39.7333 217.338 39.7 216.971 39.7C216.405 39.7 216.005 39.9 215.771 40.3C215.538 40.7 215.421 41.2833 215.421 42.05V43.25C215.421 43.5833 215.588 43.75 215.921 43.75H218.071C218.471 43.75 218.821 43.9 219.121 44.2C219.421 44.5 219.571 44.8833 219.571 45.35C219.571 45.7833 219.421 46.15 219.121 46.45C218.855 46.7167 218.488 46.85 218.021 46.85H215.921C215.588 46.85 215.421 47.0167 215.421 47.35V56.9C215.421 57.3667 215.255 57.75 214.921 58.05C214.588 58.35 214.171 58.5 213.671 58.5ZM220.839 44.95C220.839 44.4167 221.022 44 221.389 43.7C221.756 43.4 222.156 43.25 222.589 43.25C223.289 43.25 223.789 43.6 224.089 44.3L227.989 53.85C228.089 54.1167 228.272 54.25 228.539 54.25C228.806 54.25 228.989 54.1333 229.089 53.9L232.439 44.35C232.706 43.6167 233.222 43.25 233.989 43.25C234.456 43.25 234.872 43.4 235.239 43.7C235.639 44 235.839 44.3667 235.839 44.8C235.839 44.9667 235.789 45.2 235.689 45.5L228.039 64.15C227.772 64.8833 227.256 65.25 226.489 65.25C226.056 65.25 225.639 65.1 225.239 64.8C224.872 64.5 224.689 64.1333 224.689 63.7C224.689 63.3667 224.739 63.1333 224.839 63L227.289 58C226.589 57.9333 226.106 57.6 225.839 57L220.939 45.55C220.872 45.2833 220.839 45.0833 220.839 44.95ZM239.891 58.75C239.258 58.75 238.708 58.5333 238.241 58.1C237.808 57.7 237.591 57.2167 237.591 56.65C237.591 56.05 237.808 55.55 238.241 55.15C238.708 54.7167 239.258 54.5 239.891 54.5C240.491 54.5 241.008 54.7167 241.441 55.15C241.874 55.55 242.091 56.05 242.091 56.65C242.091 57.2167 241.874 57.7 241.441 58.1C241.008 58.5333 240.491 58.75 239.891 58.75ZM253.301 58.5C251.867 58.5 250.584 58.1667 249.451 57.5C248.317 56.8333 247.434 55.9167 246.801 54.75C246.167 53.55 245.851 52.2167 245.851 50.75C245.851 49.3167 246.167 48.0333 246.801 46.9C247.434 45.7667 248.317 44.8833 249.451 44.25C250.584 43.5833 251.867 43.25 253.301 43.25C254.234 43.25 255.067 43.4167 255.801 43.75C256.534 44.05 257.167 44.45 257.701 44.95C257.767 44.4833 257.967 44.1333 258.301 43.9C258.634 43.6333 259.001 43.5 259.401 43.5C259.834 43.5 260.217 43.65 260.551 43.95C260.917 44.2167 261.101 44.6333 261.101 45.2V56.95C261.101 57.45 260.917 57.8333 260.551 58.1C260.217 58.3667 259.834 58.5 259.401 58.5C258.967 58.5 258.567 58.3667 258.201 58.1C257.867 57.8333 257.701 57.45 257.701 56.95V56.75C257.167 57.2833 256.534 57.7 255.801 58C255.067 58.3333 254.234 58.5 253.301 58.5ZM253.601 55.4C254.867 55.4 255.867 54.9833 256.601 54.15C257.334 53.2833 257.701 52.15 257.701 50.75C257.701 49.4167 257.334 48.35 256.601 47.55C255.867 46.75 254.867 46.35 253.601 46.35C252.301 46.35 251.251 46.75 250.451 47.55C249.651 48.35 249.251 49.4167 249.251 50.75C249.251 52.15 249.651 53.2833 250.451 54.15C251.251 54.9833 252.301 55.4 253.601 55.4ZM272.668 58.5C271.735 58.5 270.902 58.3333 270.168 58C269.435 57.7 268.802 57.2833 268.268 56.75V63.7C268.268 64.2 268.085 64.5833 267.718 64.85C267.385 65.1167 267.002 65.25 266.568 65.25C266.135 65.25 265.735 65.1167 265.368 64.85C265.035 64.5833 264.868 64.2 264.868 63.7V45.2C264.868 44.6333 265.035 44.2167 265.368 43.95C265.735 43.65 266.135 43.5 266.568 43.5C266.968 43.5 267.335 43.6333 267.668 43.9C268.002 44.1333 268.202 44.4833 268.268 44.95C268.802 44.45 269.435 44.05 270.168 43.75C270.902 43.4167 271.735 43.25 272.668 43.25C274.135 43.25 275.418 43.5833 276.518 44.25C277.652 44.8833 278.535 45.7667 279.168 46.9C279.802 48.0333 280.118 49.3167 280.118 50.75C280.118 52.2167 279.802 53.55 279.168 54.75C278.535 55.9167 277.652 56.8333 276.518 57.5C275.418 58.1667 274.135 58.5 272.668 58.5ZM272.368 55.4C273.668 55.4 274.718 54.9833 275.518 54.15C276.318 53.2833 276.718 52.15 276.718 50.75C276.718 49.4167 276.318 48.35 275.518 47.55C274.718 46.75 273.668 46.35 272.368 46.35C271.102 46.35 270.102 46.75 269.368 47.55C268.635 48.35 268.268 49.4167 268.268 50.75C268.268 52.15 268.635 53.2833 269.368 54.15C270.102 54.9833 271.102 55.4 272.368 55.4ZM290.93 58.5C289.997 58.5 289.163 58.3333 288.43 58C287.697 57.7 287.063 57.2833 286.53 56.75V63.7C286.53 64.2 286.347 64.5833 285.98 64.85C285.647 65.1167 285.263 65.25 284.83 65.25C284.397 65.25 283.997 65.1167 283.63 64.85C283.297 64.5833 283.13 64.2 283.13 63.7V45.2C283.13 44.6333 283.297 44.2167 283.63 43.95C283.997 43.65 284.397 43.5 284.83 43.5C285.23 43.5 285.597 43.6333 285.93 43.9C286.263 44.1333 286.463 44.4833 286.53 44.95C287.063 44.45 287.697 44.05 288.43 43.75C289.163 43.4167 289.997 43.25 290.93 43.25C292.397 43.25 293.68 43.5833 294.78 44.25C295.913 44.8833 296.797 45.7667 297.43 46.9C298.063 48.0333 298.38 49.3167 298.38 50.75C298.38 52.2167 298.063 53.55 297.43 54.75C296.797 55.9167 295.913 56.8333 294.78 57.5C293.68 58.1667 292.397 58.5 290.93 58.5ZM290.63 55.4C291.93 55.4 292.98 54.9833 293.78 54.15C294.58 53.2833 294.98 52.15 294.98 50.75C294.98 49.4167 294.58 48.35 293.78 47.55C292.98 46.75 291.93 46.35 290.63 46.35C289.363 46.35 288.363 46.75 287.63 47.55C286.897 48.35 286.53 49.4167 286.53 50.75C286.53 52.15 286.897 53.2833 287.63 54.15C288.363 54.9833 289.363 55.4 290.63 55.4ZM303.192 62.8C302.958 63.4333 302.592 63.75 302.092 63.75C301.658 63.75 301.325 63.5667 301.092 63.2C300.858 62.8667 300.808 62.5 300.942 62.1L309.542 36.6C309.742 36.0333 310.108 35.75 310.642 35.75C311.075 35.75 311.408 35.9167 311.642 36.25C311.908 36.5833 311.975 36.95 311.842 37.35L303.192 62.8ZM317.155 58.5C316.722 58.5 316.322 58.3667 315.955 58.1C315.622 57.8333 315.455 57.45 315.455 56.95V44.95C315.455 44.3833 315.622 43.9667 315.955 43.7C316.322 43.4 316.722 43.25 317.155 43.25C317.589 43.25 317.972 43.4 318.305 43.7C318.672 43.9667 318.855 44.3833 318.855 44.95V56.95C318.855 57.45 318.672 57.8333 318.305 58.1C317.972 58.3667 317.589 58.5 317.155 58.5ZM317.205 40.5C316.572 40.5 316.022 40.3 315.555 39.9C315.122 39.4667 314.905 38.95 314.905 38.35C314.905 37.7833 315.122 37.3 315.555 36.9C316.022 36.4667 316.572 36.25 317.205 36.25C317.805 36.25 318.322 36.4667 318.755 36.9C319.189 37.3 319.405 37.7833 319.405 38.35C319.405 38.95 319.189 39.4667 318.755 39.9C318.322 40.3 317.805 40.5 317.205 40.5ZM329.375 58.5C327.942 58.5 326.658 58.1667 325.525 57.5C324.392 56.8333 323.508 55.9167 322.875 54.75C322.242 53.55 321.925 52.2167 321.925 50.75C321.925 49.3167 322.242 48.0333 322.875 46.9C323.508 45.7667 324.392 44.8833 325.525 44.25C326.658 43.5833 327.942 43.25 329.375 43.25C330.308 43.25 331.142 43.4167 331.875 43.75C332.608 44.05 333.242 44.45 333.775 44.95C333.842 44.4833 334.042 44.1333 334.375 43.9C334.708 43.6333 335.075 43.5 335.475 43.5C335.908 43.5 336.292 43.65 336.625 43.95C336.992 44.2167 337.175 44.6333 337.175 45.2V56.95C337.175 57.45 336.992 57.8333 336.625 58.1C336.292 58.3667 335.908 58.5 335.475 58.5C335.042 58.5 334.642 58.3667 334.275 58.1C333.942 57.8333 333.775 57.45 333.775 56.95V56.75C333.242 57.2833 332.608 57.7 331.875 58C331.142 58.3333 330.308 58.5 329.375 58.5ZM329.675 55.4C330.942 55.4 331.942 54.9833 332.675 54.15C333.408 53.2833 333.775 52.15 333.775 50.75C333.775 49.4167 333.408 48.35 332.675 47.55C331.942 46.75 330.942 46.35 329.675 46.35C328.375 46.35 327.325 46.75 326.525 47.55C325.725 48.35 325.325 49.4167 325.325 50.75C325.325 52.15 325.725 53.2833 326.525 54.15C327.325 54.9833 328.375 55.4 329.675 55.4ZM342.743 62.8C342.509 63.4333 342.143 63.75 341.643 63.75C341.209 63.75 340.876 63.5667 340.643 63.2C340.409 62.8667 340.359 62.5 340.493 62.1L349.093 36.6C349.293 36.0333 349.659 35.75 350.193 35.75C350.626 35.75 350.959 35.9167 351.193 36.25C351.459 36.5833 351.526 36.95 351.393 37.35L342.743 62.8Z" fill="black" fill-opacity="0.67"/>
<path d="M360.606 58.5C359.306 58.5 358.24 58.1 357.406 57.3C356.573 56.5 356.156 55.3 356.156 53.7V47.35C356.156 47.0167 355.99 46.85 355.656 46.85H354.756C354.323 46.85 353.956 46.7167 353.656 46.45C353.356 46.15 353.206 45.7833 353.206 45.35C353.206 44.8833 353.356 44.5 353.656 44.2C353.956 43.9 354.323 43.75 354.756 43.75H355.656C355.99 43.75 356.156 43.5833 356.156 43.25V39.05C356.156 38.5833 356.306 38.2167 356.606 37.95C356.94 37.65 357.34 37.5 357.806 37.5C358.306 37.5 358.706 37.65 359.006 37.95C359.34 38.2167 359.506 38.5833 359.506 39.05V43.25C359.506 43.5833 359.673 43.75 360.006 43.75H362.706C363.106 43.75 363.456 43.9 363.756 44.2C364.056 44.5 364.206 44.8833 364.206 45.35C364.206 45.7833 364.056 46.15 363.756 46.45C363.49 46.7167 363.123 46.85 362.656 46.85H360.006C359.673 46.85 359.506 47.0167 359.506 47.35V53.25C359.506 54.65 360.073 55.35 361.206 55.35C361.54 55.35 361.89 55.3 362.256 55.2C362.623 55.1 362.873 55.05 363.006 55.05C363.473 55.05 363.823 55.2 364.056 55.5C364.323 55.8 364.456 56.15 364.456 56.55C364.456 56.85 364.373 57.15 364.206 57.45C364.04 57.7167 363.773 57.9167 363.406 58.05C363.04 58.1833 362.573 58.2833 362.006 58.35C361.473 58.45 361.006 58.5 360.606 58.5ZM377.318 44.9C377.318 44.4333 377.468 44.05 377.768 43.75C378.101 43.4167 378.518 43.25 379.018 43.25C379.485 43.25 379.885 43.4167 380.218 43.75C380.551 44.05 380.718 44.4333 380.718 44.9V51.95C380.718 53.45 380.385 54.6833 379.718 55.65C379.051 56.6167 378.185 57.3333 377.118 57.8C376.051 58.2667 374.918 58.5 373.718 58.5C372.518 58.5 371.385 58.2667 370.318 57.8C369.251 57.3333 368.385 56.6167 367.718 55.65C367.051 54.6833 366.718 53.45 366.718 51.95V44.9C366.718 44.4333 366.868 44.05 367.168 43.75C367.501 43.4167 367.918 43.25 368.418 43.25C368.885 43.25 369.285 43.4167 369.618 43.75C369.951 44.05 370.118 44.4333 370.118 44.9V51.95C370.118 53.1833 370.485 54.0667 371.218 54.6C371.951 55.1333 372.785 55.4 373.718 55.4C374.685 55.4 375.518 55.1333 376.218 54.6C376.951 54.0667 377.318 53.1833 377.318 51.95V44.9ZM407.008 58.5C406.575 58.5 406.175 58.3667 405.808 58.1C405.475 57.8333 405.308 57.45 405.308 56.95V50.65C405.308 49.1833 404.975 48.1 404.308 47.4C403.675 46.7 402.825 46.35 401.758 46.35C400.392 46.35 399.392 46.8 398.758 47.7C398.158 48.5667 397.858 49.5333 397.858 50.6V56.95C397.858 57.45 397.675 57.8333 397.308 58.1C396.975 58.3667 396.592 58.5 396.158 58.5C395.725 58.5 395.325 58.3667 394.958 58.1C394.625 57.8333 394.458 57.45 394.458 56.95V45.2C394.458 44.6333 394.625 44.2167 394.958 43.95C395.325 43.65 395.725 43.5 396.158 43.5C396.592 43.5 396.975 43.65 397.308 43.95C397.675 44.2167 397.858 44.6333 397.858 45.2C398.425 44.6333 399.158 44.1667 400.058 43.8C400.958 43.4333 401.808 43.25 402.608 43.25C404.475 43.25 405.958 43.85 407.058 45.05C408.158 46.25 408.708 48.0167 408.708 50.35V56.95C408.708 57.45 408.525 57.8333 408.158 58.1C407.792 58.3667 407.408 58.5 407.008 58.5ZM419.226 58.5C417.759 58.5 416.426 58.1667 415.226 57.5C414.059 56.8333 413.142 55.9167 412.476 54.75C411.809 53.55 411.476 52.2167 411.476 50.75C411.476 49.3167 411.809 48.0333 412.476 46.9C413.142 45.7667 414.059 44.8833 415.226 44.25C416.426 43.5833 417.759 43.25 419.226 43.25C420.692 43.25 422.009 43.5833 423.176 44.25C424.342 44.8833 425.259 45.7667 425.926 46.9C426.626 48.0333 426.976 49.3167 426.976 50.75C426.976 52.2167 426.626 53.55 425.926 54.75C425.259 55.9167 424.342 56.8333 423.176 57.5C422.009 58.1667 420.692 58.5 419.226 58.5ZM419.226 55.4C420.526 55.4 421.576 54.9833 422.376 54.15C423.176 53.2833 423.576 52.15 423.576 50.75C423.576 49.4167 423.176 48.35 422.376 47.55C421.576 46.75 420.526 46.35 419.226 46.35C417.892 46.35 416.826 46.75 416.026 47.55C415.259 48.35 414.876 49.4167 414.876 50.75C414.876 52.15 415.259 53.2833 416.026 54.15C416.826 54.9833 417.892 55.4 419.226 55.4ZM431.656 58.5C431.223 58.5 430.823 58.3667 430.456 58.1C430.123 57.8333 429.956 57.45 429.956 56.95V45.2C429.956 44.6333 430.123 44.2167 430.456 43.95C430.823 43.65 431.223 43.5 431.656 43.5C431.99 43.5 432.306 43.5833 432.606 43.75C432.906 43.8833 433.123 44.1333 433.256 44.5C433.323 44.7 433.356 44.8833 433.356 45.05C433.856 44.5167 434.506 44.0833 435.306 43.75C436.106 43.4167 436.89 43.25 437.656 43.25C439.823 43.25 441.423 44.1167 442.456 45.85C442.856 45.15 443.506 44.55 444.406 44.05C445.34 43.5167 446.473 43.25 447.806 43.25C449.606 43.25 451.04 43.85 452.106 45.05C453.173 46.25 453.706 48.0167 453.706 50.35V56.95C453.706 57.45 453.523 57.8333 453.156 58.1C452.79 58.3667 452.406 58.5 452.006 58.5C451.573 58.5 451.173 58.3667 450.806 58.1C450.473 57.8333 450.306 57.45 450.306 56.95V50.65C450.306 47.7833 449.24 46.35 447.106 46.35C445.906 46.35 445.04 46.6667 444.506 47.3C443.973 47.9333 443.64 48.6833 443.506 49.55V56.95C443.506 57.45 443.323 57.8333 442.956 58.1C442.59 58.3667 442.206 58.5 441.806 58.5C441.373 58.5 440.973 58.3667 440.606 58.1C440.273 57.8333 440.106 57.45 440.106 56.95V50.65C440.106 49.1833 439.823 48.1 439.256 47.4C438.69 46.7 437.923 46.35 436.956 46.35C435.523 46.35 434.556 46.8 434.056 47.7C433.59 48.5667 433.356 49.5333 433.356 50.6V56.95C433.356 57.45 433.173 57.8333 432.806 58.1C432.473 58.3667 432.09 58.5 431.656 58.5ZM465.246 58.5C464.313 58.5 463.48 58.3333 462.746 58C462.013 57.7 461.38 57.2833 460.846 56.75V56.95C460.846 57.45 460.663 57.8333 460.296 58.1C459.963 58.3667 459.58 58.5 459.146 58.5C458.713 58.5 458.313 58.3667 457.946 58.1C457.613 57.8333 457.446 57.45 457.446 56.95V37.95C457.446 37.3833 457.613 36.9667 457.946 36.7C458.313 36.4 458.713 36.25 459.146 36.25C459.58 36.25 459.963 36.4 460.296 36.7C460.663 36.9667 460.846 37.3833 460.846 37.95V44.95C461.38 44.4167 462.013 44 462.746 43.7C463.48 43.4 464.313 43.25 465.246 43.25C466.713 43.25 467.996 43.5833 469.096 44.25C470.23 44.8833 471.113 45.7667 471.746 46.9C472.38 48.0333 472.696 49.3167 472.696 50.75C472.696 52.2167 472.38 53.55 471.746 54.75C471.113 55.9167 470.23 56.8333 469.096 57.5C467.996 58.1667 466.713 58.5 465.246 58.5ZM464.946 55.4C466.246 55.4 467.296 54.9833 468.096 54.15C468.896 53.2833 469.296 52.15 469.296 50.75C469.296 49.4167 468.896 48.35 468.096 47.55C467.296 46.75 466.246 46.35 464.946 46.35C463.68 46.35 462.68 46.75 461.946 47.55C461.213 48.35 460.846 49.4167 460.846 50.75C460.846 52.15 461.213 53.2833 461.946 54.15C462.68 54.9833 463.68 55.4 464.946 55.4ZM479.108 50.6V56.95C479.108 57.45 478.925 57.8333 478.558 58.1C478.225 58.3667 477.842 58.5 477.408 58.5C476.975 58.5 476.575 58.3667 476.208 58.1C475.875 57.8333 475.708 57.45 475.708 56.95V45.2C475.708 44.6333 475.875 44.2167 476.208 43.95C476.575 43.65 476.975 43.5 477.408 43.5C477.842 43.5 478.225 43.65 478.558 43.95C478.925 44.2167 479.108 44.6333 479.108 45.2V45.4C479.575 44.7667 480.175 44.25 480.908 43.85C481.675 43.45 482.475 43.25 483.308 43.25C483.708 43.25 484.108 43.3 484.508 43.4C484.908 43.5 485.208 43.7 485.408 44C485.608 44.3 485.708 44.6333 485.708 45C485.708 45.4333 485.558 45.8333 485.258 46.2C484.992 46.5333 484.592 46.7 484.058 46.7C483.825 46.7 483.575 46.6667 483.308 46.6C483.075 46.5333 482.775 46.5 482.408 46.5C481.442 46.5 480.642 46.8667 480.008 47.6C479.408 48.3333 479.108 49.3333 479.108 50.6ZM494.426 58.5C491.926 58.5 489.976 57.7833 488.576 56.35C487.176 54.9167 486.476 52.9833 486.476 50.55C486.476 48.4167 487.176 46.6667 488.576 45.3C490.009 43.9333 491.842 43.25 494.076 43.25C496.242 43.25 497.976 43.8833 499.276 45.15C500.576 46.3833 501.226 47.9167 501.226 49.75C501.226 50.4833 501.026 51.0333 500.626 51.4C500.259 51.7667 499.776 51.95 499.176 51.95H490.476C490.142 51.95 490.026 52.1333 490.126 52.5C490.392 53.4333 490.926 54.1667 491.726 54.7C492.559 55.2 493.492 55.45 494.526 55.45C495.292 55.45 496.026 55.35 496.726 55.15C497.459 54.95 498.092 54.65 498.626 54.25C498.792 54.1167 499.009 54.05 499.276 54.05C499.642 54.05 499.976 54.2167 500.276 54.55C500.576 54.85 500.726 55.2167 500.726 55.65C500.726 55.85 500.692 56.05 500.626 56.25C500.559 56.45 500.409 56.65 500.176 56.85C499.309 57.4833 498.376 57.9167 497.376 58.15C496.409 58.3833 495.426 58.5 494.426 58.5ZM497.326 49.35C497.526 49.35 497.626 49.25 497.626 49.05C497.626 48.2833 497.276 47.6167 496.576 47.05C495.909 46.4833 495.076 46.2 494.076 46.2C493.209 46.2 492.376 46.4333 491.576 46.9C490.809 47.3667 490.342 47.9833 490.176 48.75C490.176 48.75 490.176 48.7667 490.176 48.8C490.142 48.9333 490.126 49.05 490.126 49.15C490.159 49.25 490.309 49.3 490.576 49.3L497.326 49.35Z" fill="black" fill-opacity="0.35"/>
<defs>
<filter id="filter0_d_251_2" x="0" y="0" width="585" height="105" filterUnits="userSpaceOnUse" color-interpolation-filters="sRGB">
<feFlood flood-opacity="0" result="BackgroundImageFix"/>
<feColorMatrix in="SourceAlpha" type="matrix" values="0 0 0 0 0 0 0 0 0 0 0 0 0 0 0 0 0 0 127 0" result="hardAlpha"/>
<feOffset dy="2"/>
<feGaussianBlur stdDeviation="8"/>
<feComposite in2="hardAlpha" operator="out"/>
<feColorMatrix type="matrix" values="0 0 0 0 0 0 0 0 0 0.0352941 0 0 0 0 0.501961 0 0 0 0.25 0"/>
<feBlend mode="normal" in2="BackgroundImageFix" result="effect1_dropShadow_251_2"/>
<feBlend mode="normal" in="SourceGraphic" in2="effect1_dropShadow_251_2" result="shape"/>
</filter>
</defs>
</svg>
