<svg width="538" height="105" viewBox="0 0 538 105" fill="none" xmlns="http://www.w3.org/2000/svg">
<g filter="url(#filter0_d_59_165)">
<rect x="16" y="14" width="506" height="73" fill="white"/>
</g>
<path d="M53.75 58.5C53.3167 58.5 52.9167 58.3667 52.55 58.1C52.2167 57.8333 52.05 57.45 52.05 56.95V44.95C52.05 44.3833 52.2167 43.9667 52.55 43.7C52.9167 43.4 53.3167 43.25 53.75 43.25C54.1833 43.25 54.5667 43.4 54.9 43.7C55.2667 43.9667 55.45 44.3833 55.45 44.95V56.95C55.45 57.45 55.2667 57.8333 54.9 58.1C54.5667 58.3667 54.1833 58.5 53.75 58.5ZM53.8 40.5C53.1667 40.5 52.6167 40.3 52.15 39.9C51.7167 39.4667 51.5 38.95 51.5 38.35C51.5 37.7833 51.7167 37.3 52.15 36.9C52.6167 36.4667 53.1667 36.25 53.8 36.25C54.4 36.25 54.9167 36.4667 55.35 36.9C55.7833 37.3 56 37.7833 56 38.35C56 38.95 55.7833 39.4667 55.35 39.9C54.9167 40.3 54.4 40.5 53.8 40.5ZM68.8695 48C69.2695 48 69.6029 48.1167 69.8695 48.35C70.1362 48.5833 70.2695 48.8833 70.2695 49.25C70.2695 49.5833 70.1362 49.8833 69.8695 50.15C69.6029 50.3833 69.2695 50.5 68.8695 50.5H61.1195C60.2195 50.5 59.7695 50.0833 59.7695 49.25C59.7695 48.4167 60.2195 48 61.1195 48H68.8695ZM75.1598 58.5C74.7264 58.5 74.3431 58.35 74.0098 58.05C73.6764 57.75 73.5098 57.35 73.5098 56.85C73.5098 56.6833 73.5431 56.4667 73.6098 56.2L79.8598 39.25C80.0931 38.6833 80.4431 38.25 80.9098 37.95C81.3764 37.65 81.8764 37.5 82.4098 37.5C82.9431 37.5 83.4431 37.65 83.9098 37.95C84.4098 38.25 84.7764 38.6833 85.0098 39.25L91.6598 56.2C91.7264 56.4667 91.7598 56.6833 91.7598 56.85C91.7598 57.35 91.5931 57.75 91.2598 58.05C90.9264 58.35 90.5431 58.5 90.1098 58.5C89.8098 58.5 89.4931 58.4167 89.1598 58.25C88.8598 58.1167 88.6264 57.8833 88.4598 57.55L86.8098 53.15C86.7764 52.95 86.6431 52.85 86.4098 52.85H78.7598C78.5264 52.85 78.3764 52.95 78.3098 53.15L76.8098 57.55C76.6431 57.8833 76.3931 58.1167 76.0598 58.25C75.7598 58.4167 75.4598 58.5 75.1598 58.5ZM80.2598 49.85H84.7598C84.9598 49.85 85.1098 49.7833 85.2098 49.65C85.3431 49.4833 85.3764 49.2833 85.3098 49.05L82.9098 42.2C82.8098 41.8667 82.6598 41.7 82.4598 41.7C82.2264 41.7 82.0598 41.8667 81.9598 42.2L79.7098 49.1C79.6431 49.3 79.6598 49.4833 79.7598 49.65C79.8931 49.7833 80.0598 49.85 80.2598 49.85ZM96.4734 58.5C96.0401 58.5 95.6401 58.3667 95.2734 58.1C94.9401 57.8333 94.7734 57.45 94.7734 56.95V45.2C94.7734 44.6333 94.9401 44.2167 95.2734 43.95C95.6401 43.65 96.0401 43.5 96.4734 43.5C96.8068 43.5 97.1234 43.5833 97.4234 43.75C97.7234 43.8833 97.9401 44.1333 98.0734 44.5C98.1401 44.7 98.1734 44.8833 98.1734 45.05C98.6734 44.5167 99.3234 44.0833 100.123 43.75C100.923 43.4167 101.707 43.25 102.473 43.25C104.64 43.25 106.24 44.1167 107.273 45.85C107.673 45.15 108.323 44.55 109.223 44.05C110.157 43.5167 111.29 43.25 112.623 43.25C114.423 43.25 115.857 43.85 116.923 45.05C117.99 46.25 118.523 48.0167 118.523 50.35V56.95C118.523 57.45 118.34 57.8333 117.973 58.1C117.607 58.3667 117.223 58.5 116.823 58.5C116.39 58.5 115.99 58.3667 115.623 58.1C115.29 57.8333 115.123 57.45 115.123 56.95V50.65C115.123 47.7833 114.057 46.35 111.923 46.35C110.723 46.35 109.857 46.6667 109.323 47.3C108.79 47.9333 108.457 48.6833 108.323 49.55V56.95C108.323 57.45 108.14 57.8333 107.773 58.1C107.407 58.3667 107.023 58.5 106.623 58.5C106.19 58.5 105.79 58.3667 105.423 58.1C105.09 57.8333 104.923 57.45 104.923 56.95V50.65C104.923 49.1833 104.64 48.1 104.073 47.4C103.507 46.7 102.74 46.35 101.773 46.35C100.34 46.35 99.3734 46.8 98.8734 47.7C98.4068 48.5667 98.1734 49.5333 98.1734 50.6V56.95C98.1734 57.45 97.9901 57.8333 97.6234 58.1C97.2901 58.3667 96.9068 58.5 96.4734 58.5ZM125.314 58.75C124.68 58.75 124.13 58.5333 123.664 58.1C123.23 57.7 123.014 57.2167 123.014 56.65C123.014 56.05 123.23 55.55 123.664 55.15C124.13 54.7167 124.68 54.5 125.314 54.5C125.914 54.5 126.43 54.7167 126.864 55.15C127.297 55.55 127.514 56.05 127.514 56.65C127.514 57.2167 127.297 57.7 126.864 58.1C126.43 58.5333 125.914 58.75 125.314 58.75ZM144.823 58.5C144.39 58.5 143.99 58.3667 143.623 58.1C143.29 57.8333 143.123 57.45 143.123 56.95V50.65C143.123 49.1833 142.79 48.1 142.123 47.4C141.49 46.7 140.64 46.35 139.573 46.35C138.207 46.35 137.207 46.8 136.573 47.7C135.973 48.5667 135.673 49.5333 135.673 50.6V56.95C135.673 57.45 135.49 57.8333 135.123 58.1C134.79 58.3667 134.407 58.5 133.973 58.5C133.54 58.5 133.14 58.3667 132.773 58.1C132.44 57.8333 132.273 57.45 132.273 56.95V45.2C132.273 44.6333 132.44 44.2167 132.773 43.95C133.14 43.65 133.54 43.5 133.973 43.5C134.407 43.5 134.79 43.65 135.123 43.95C135.49 44.2167 135.673 44.6333 135.673 45.2C136.24 44.6333 136.973 44.1667 137.873 43.8C138.773 43.4333 139.623 43.25 140.423 43.25C142.29 43.25 143.773 43.85 144.873 45.05C145.973 46.25 146.523 48.0167 146.523 50.35V56.95C146.523 57.45 146.34 57.8333 145.973 58.1C145.607 58.3667 145.223 58.5 144.823 58.5ZM157.241 58.5C154.741 58.5 152.791 57.7833 151.391 56.35C149.991 54.9167 149.291 52.9833 149.291 50.55C149.291 48.4167 149.991 46.6667 151.391 45.3C152.824 43.9333 154.658 43.25 156.891 43.25C159.058 43.25 160.791 43.8833 162.091 45.15C163.391 46.3833 164.041 47.9167 164.041 49.75C164.041 50.4833 163.841 51.0333 163.441 51.4C163.074 51.7667 162.591 51.95 161.991 51.95H153.291C152.958 51.95 152.841 52.1333 152.941 52.5C153.208 53.4333 153.741 54.1667 154.541 54.7C155.374 55.2 156.308 55.45 157.341 55.45C158.108 55.45 158.841 55.35 159.541 55.15C160.274 54.95 160.908 54.65 161.441 54.25C161.608 54.1167 161.824 54.05 162.091 54.05C162.458 54.05 162.791 54.2167 163.091 54.55C163.391 54.85 163.541 55.2167 163.541 55.65C163.541 55.85 163.508 56.05 163.441 56.25C163.374 56.45 163.224 56.65 162.991 56.85C162.124 57.4833 161.191 57.9167 160.191 58.15C159.224 58.3833 158.241 58.5 157.241 58.5ZM160.141 49.35C160.341 49.35 160.441 49.25 160.441 49.05C160.441 48.2833 160.091 47.6167 159.391 47.05C158.724 46.4833 157.891 46.2 156.891 46.2C156.024 46.2 155.191 46.4333 154.391 46.9C153.624 47.3667 153.158 47.9833 152.991 48.75C152.991 48.75 152.991 48.7667 152.991 48.8C152.958 48.9333 152.941 49.05 152.941 49.15C152.974 49.25 153.124 49.3 153.391 49.3L160.141 49.35ZM172.689 58.5C171.389 58.5 170.322 58.1 169.489 57.3C168.656 56.5 168.239 55.3 168.239 53.7V47.35C168.239 47.0167 168.072 46.85 167.739 46.85H166.839C166.406 46.85 166.039 46.7167 165.739 46.45C165.439 46.15 165.289 45.7833 165.289 45.35C165.289 44.8833 165.439 44.5 165.739 44.2C166.039 43.9 166.406 43.75 166.839 43.75H167.739C168.072 43.75 168.239 43.5833 168.239 43.25V39.05C168.239 38.5833 168.389 38.2167 168.689 37.95C169.022 37.65 169.422 37.5 169.889 37.5C170.389 37.5 170.789 37.65 171.089 37.95C171.422 38.2167 171.589 38.5833 171.589 39.05V43.25C171.589 43.5833 171.756 43.75 172.089 43.75H174.789C175.189 43.75 175.539 43.9 175.839 44.2C176.139 44.5 176.289 44.8833 176.289 45.35C176.289 45.7833 176.139 46.15 175.839 46.45C175.572 46.7167 175.206 46.85 174.739 46.85H172.089C171.756 46.85 171.589 47.0167 171.589 47.35V53.25C171.589 54.65 172.156 55.35 173.289 55.35C173.622 55.35 173.972 55.3 174.339 55.2C174.706 55.1 174.956 55.05 175.089 55.05C175.556 55.05 175.906 55.2 176.139 55.5C176.406 55.8 176.539 56.15 176.539 56.55C176.539 56.85 176.456 57.15 176.289 57.45C176.122 57.7167 175.856 57.9167 175.489 58.05C175.122 58.1833 174.656 58.2833 174.089 58.35C173.556 58.45 173.089 58.5 172.689 58.5ZM180.751 58.5C180.317 58.5 179.917 58.3667 179.551 58.1C179.217 57.8333 179.051 57.45 179.051 56.95V37.95C179.051 37.3833 179.217 36.9667 179.551 36.7C179.917 36.4 180.317 36.25 180.751 36.25C181.184 36.25 181.567 36.4 181.901 36.7C182.267 36.9667 182.451 37.3833 182.451 37.95V56.95C182.451 57.45 182.267 57.8333 181.901 58.1C181.567 58.3667 181.184 58.5 180.751 58.5ZM188.32 58.5C187.887 58.5 187.487 58.3667 187.12 58.1C186.787 57.8333 186.62 57.45 186.62 56.95V44.95C186.62 44.3833 186.787 43.9667 187.12 43.7C187.487 43.4 187.887 43.25 188.32 43.25C188.754 43.25 189.137 43.4 189.47 43.7C189.837 43.9667 190.02 44.3833 190.02 44.95V56.95C190.02 57.45 189.837 57.8333 189.47 58.1C189.137 58.3667 188.754 58.5 188.32 58.5ZM188.37 40.5C187.737 40.5 187.187 40.3 186.72 39.9C186.287 39.4667 186.07 38.95 186.07 38.35C186.07 37.7833 186.287 37.3 186.72 36.9C187.187 36.4667 187.737 36.25 188.37 36.25C188.97 36.25 189.487 36.4667 189.92 36.9C190.354 37.3 190.57 37.7833 190.57 38.35C190.57 38.95 190.354 39.4667 189.92 39.9C189.487 40.3 188.97 40.5 188.37 40.5ZM197.19 58.5C196.69 58.5 196.29 58.35 195.99 58.05C195.69 57.75 195.54 57.3667 195.54 56.9V47.35C195.54 47.0167 195.373 46.85 195.04 46.85H193.89C193.457 46.85 193.09 46.7167 192.79 46.45C192.49 46.15 192.34 45.7833 192.34 45.35C192.34 44.8833 192.49 44.5 192.79 44.2C193.09 43.9 193.457 43.75 193.89 43.75H195.04C195.373 43.75 195.54 43.5833 195.54 43.25V41.95C195.54 40.2833 195.973 38.9667 196.84 38C197.74 37 199.007 36.5 200.64 36.5C201.007 36.5 201.373 36.55 201.74 36.65C202.14 36.7167 202.44 36.7833 202.64 36.85C203.273 37.0833 203.59 37.55 203.59 38.25C203.59 38.7833 203.423 39.2 203.09 39.5C202.79 39.7667 202.423 39.9 201.99 39.9C201.757 39.9 201.54 39.8667 201.34 39.8C201.14 39.7333 200.857 39.7 200.49 39.7C199.923 39.7 199.523 39.9 199.29 40.3C199.057 40.7 198.94 41.2833 198.94 42.05V43.25C198.94 43.5833 199.107 43.75 199.44 43.75H201.59C201.99 43.75 202.34 43.9 202.64 44.2C202.94 44.5 203.09 44.8833 203.09 45.35C203.09 45.7833 202.94 46.15 202.64 46.45C202.373 46.7167 202.007 46.85 201.54 46.85H199.44C199.107 46.85 198.94 47.0167 198.94 47.35V56.9C198.94 57.3667 198.773 57.75 198.44 58.05C198.107 58.35 197.69 58.5 197.19 58.5ZM204.357 44.95C204.357 44.4167 204.541 44 204.907 43.7C205.274 43.4 205.674 43.25 206.107 43.25C206.807 43.25 207.307 43.6 207.607 44.3L211.507 53.85C211.607 54.1167 211.791 54.25 212.057 54.25C212.324 54.25 212.507 54.1333 212.607 53.9L215.957 44.35C216.224 43.6167 216.741 43.25 217.507 43.25C217.974 43.25 218.391 43.4 218.757 43.7C219.157 44 219.357 44.3667 219.357 44.8C219.357 44.9667 219.307 45.2 219.207 45.5L211.557 64.15C211.291 64.8833 210.774 65.25 210.007 65.25C209.574 65.25 209.157 65.1 208.757 64.8C208.391 64.5 208.207 64.1333 208.207 63.7C208.207 63.3667 208.257 63.1333 208.357 63L210.807 58C210.107 57.9333 209.624 57.6 209.357 57L204.457 45.55C204.391 45.2833 204.357 45.0833 204.357 44.95ZM223.409 58.75C222.776 58.75 222.226 58.5333 221.759 58.1C221.326 57.7 221.109 57.2167 221.109 56.65C221.109 56.05 221.326 55.55 221.759 55.15C222.226 54.7167 222.776 54.5 223.409 54.5C224.009 54.5 224.526 54.7167 224.959 55.15C225.393 55.55 225.609 56.05 225.609 56.65C225.609 57.2167 225.393 57.7 224.959 58.1C224.526 58.5333 224.009 58.75 223.409 58.75ZM237.019 58.5C234.786 58.5 232.952 57.7833 231.519 56.35C230.086 54.9167 229.369 53.05 229.369 50.75C229.369 49.2833 229.702 47.9833 230.369 46.85C231.036 45.7167 231.936 44.8333 233.069 44.2C234.236 43.5667 235.552 43.25 237.019 43.25C239.019 43.25 240.719 43.7167 242.119 44.65C242.586 44.95 242.819 45.3667 242.819 45.9C242.819 46.4333 242.652 46.85 242.319 47.15C241.986 47.45 241.602 47.6 241.169 47.6C240.869 47.6 240.602 47.5333 240.369 47.4C239.136 46.5667 237.986 46.2 236.919 46.3C235.619 46.4333 234.602 46.8833 233.869 47.65C233.136 48.3833 232.769 49.4333 232.769 50.8C232.769 52.2333 233.152 53.3667 233.919 54.2C234.719 55 235.836 55.4 237.269 55.4C238.536 55.4 239.802 54.9167 241.069 53.95C241.336 53.7167 241.686 53.6 242.119 53.6C242.619 53.6 242.986 53.8 243.219 54.2C243.486 54.5667 243.619 54.9167 243.619 55.25C243.619 55.7167 243.402 56.15 242.969 56.55C242.136 57.2833 241.219 57.7833 240.219 58.05C239.219 58.35 238.152 58.5 237.019 58.5ZM253.135 58.5C251.668 58.5 250.335 58.1667 249.135 57.5C247.968 56.8333 247.051 55.9167 246.385 54.75C245.718 53.55 245.385 52.2167 245.385 50.75C245.385 49.3167 245.718 48.0333 246.385 46.9C247.051 45.7667 247.968 44.8833 249.135 44.25C250.335 43.5833 251.668 43.25 253.135 43.25C254.601 43.25 255.918 43.5833 257.085 44.25C258.251 44.8833 259.168 45.7667 259.835 46.9C260.535 48.0333 260.885 49.3167 260.885 50.75C260.885 52.2167 260.535 53.55 259.835 54.75C259.168 55.9167 258.251 56.8333 257.085 57.5C255.918 58.1667 254.601 58.5 253.135 58.5ZM253.135 55.4C254.435 55.4 255.485 54.9833 256.285 54.15C257.085 53.2833 257.485 52.15 257.485 50.75C257.485 49.4167 257.085 48.35 256.285 47.55C255.485 46.75 254.435 46.35 253.135 46.35C251.801 46.35 250.735 46.75 249.935 47.55C249.168 48.35 248.785 49.4167 248.785 50.75C248.785 52.15 249.168 53.2833 249.935 54.15C250.735 54.9833 251.801 55.4 253.135 55.4ZM265.565 58.5C265.132 58.5 264.732 58.3667 264.365 58.1C264.032 57.8333 263.865 57.45 263.865 56.95V45.2C263.865 44.6333 264.032 44.2167 264.365 43.95C264.732 43.65 265.132 43.5 265.565 43.5C265.899 43.5 266.215 43.5833 266.515 43.75C266.815 43.8833 267.032 44.1333 267.165 44.5C267.232 44.7 267.265 44.8833 267.265 45.05C267.765 44.5167 268.415 44.0833 269.215 43.75C270.015 43.4167 270.799 43.25 271.565 43.25C273.732 43.25 275.332 44.1167 276.365 45.85C276.765 45.15 277.415 44.55 278.315 44.05C279.249 43.5167 280.382 43.25 281.715 43.25C283.515 43.25 284.949 43.85 286.015 45.05C287.082 46.25 287.615 48.0167 287.615 50.35V56.95C287.615 57.45 287.432 57.8333 287.065 58.1C286.699 58.3667 286.315 58.5 285.915 58.5C285.482 58.5 285.082 58.3667 284.715 58.1C284.382 57.8333 284.215 57.45 284.215 56.95V50.65C284.215 47.7833 283.149 46.35 281.015 46.35C279.815 46.35 278.949 46.6667 278.415 47.3C277.882 47.9333 277.549 48.6833 277.415 49.55V56.95C277.415 57.45 277.232 57.8333 276.865 58.1C276.499 58.3667 276.115 58.5 275.715 58.5C275.282 58.5 274.882 58.3667 274.515 58.1C274.182 57.8333 274.015 57.45 274.015 56.95V50.65C274.015 49.1833 273.732 48.1 273.165 47.4C272.599 46.7 271.832 46.35 270.865 46.35C269.432 46.35 268.465 46.8 267.965 47.7C267.499 48.5667 267.265 49.5333 267.265 50.6V56.95C267.265 57.45 267.082 57.8333 266.715 58.1C266.382 58.3667 265.999 58.5 265.565 58.5ZM293.155 62.8C292.922 63.4333 292.555 63.75 292.055 63.75C291.622 63.75 291.289 63.5667 291.055 63.2C290.822 62.8667 290.772 62.5 290.905 62.1L299.505 36.6C299.705 36.0333 300.072 35.75 300.605 35.75C301.039 35.75 301.372 35.9167 301.605 36.25C301.872 36.5833 301.939 36.95 301.805 37.35L293.155 62.8Z" fill="black" fill-opacity="0.67"/>
<path d="M321.029 58.5C319.729 58.5 318.662 58.1 317.829 57.3C316.996 56.5 316.579 55.3 316.579 53.7V47.35C316.579 47.0167 316.412 46.85 316.079 46.85H315.179C314.746 46.85 314.379 46.7167 314.079 46.45C313.779 46.15 313.629 45.7833 313.629 45.35C313.629 44.8833 313.779 44.5 314.079 44.2C314.379 43.9 314.746 43.75 315.179 43.75H316.079C316.412 43.75 316.579 43.5833 316.579 43.25V39.05C316.579 38.5833 316.729 38.2167 317.029 37.95C317.362 37.65 317.762 37.5 318.229 37.5C318.729 37.5 319.129 37.65 319.429 37.95C319.762 38.2167 319.929 38.5833 319.929 39.05V43.25C319.929 43.5833 320.096 43.75 320.429 43.75H323.129C323.529 43.75 323.879 43.9 324.179 44.2C324.479 44.5 324.629 44.8833 324.629 45.35C324.629 45.7833 324.479 46.15 324.179 46.45C323.912 46.7167 323.546 46.85 323.079 46.85H320.429C320.096 46.85 319.929 47.0167 319.929 47.35V53.25C319.929 54.65 320.496 55.35 321.629 55.35C321.962 55.35 322.312 55.3 322.679 55.2C323.046 55.1 323.296 55.05 323.429 55.05C323.896 55.05 324.246 55.2 324.479 55.5C324.746 55.8 324.879 56.15 324.879 56.55C324.879 56.85 324.796 57.15 324.629 57.45C324.462 57.7167 324.196 57.9167 323.829 58.05C323.462 58.1833 322.996 58.2833 322.429 58.35C321.896 58.45 321.429 58.5 321.029 58.5ZM337.741 44.9C337.741 44.4333 337.891 44.05 338.191 43.75C338.524 43.4167 338.941 43.25 339.441 43.25C339.907 43.25 340.307 43.4167 340.641 43.75C340.974 44.05 341.141 44.4333 341.141 44.9V51.95C341.141 53.45 340.807 54.6833 340.141 55.65C339.474 56.6167 338.607 57.3333 337.541 57.8C336.474 58.2667 335.341 58.5 334.141 58.5C332.941 58.5 331.807 58.2667 330.741 57.8C329.674 57.3333 328.807 56.6167 328.141 55.65C327.474 54.6833 327.141 53.45 327.141 51.95V44.9C327.141 44.4333 327.291 44.05 327.591 43.75C327.924 43.4167 328.341 43.25 328.841 43.25C329.307 43.25 329.707 43.4167 330.041 43.75C330.374 44.05 330.541 44.4333 330.541 44.9V51.95C330.541 53.1833 330.907 54.0667 331.641 54.6C332.374 55.1333 333.207 55.4 334.141 55.4C335.107 55.4 335.941 55.1333 336.641 54.6C337.374 54.0667 337.741 53.1833 337.741 51.95V44.9ZM367.431 58.5C366.998 58.5 366.598 58.3667 366.231 58.1C365.898 57.8333 365.731 57.45 365.731 56.95V50.65C365.731 49.1833 365.398 48.1 364.731 47.4C364.098 46.7 363.248 46.35 362.181 46.35C360.814 46.35 359.814 46.8 359.181 47.7C358.581 48.5667 358.281 49.5333 358.281 50.6V56.95C358.281 57.45 358.098 57.8333 357.731 58.1C357.398 58.3667 357.014 58.5 356.581 58.5C356.148 58.5 355.748 58.3667 355.381 58.1C355.048 57.8333 354.881 57.45 354.881 56.95V45.2C354.881 44.6333 355.048 44.2167 355.381 43.95C355.748 43.65 356.148 43.5 356.581 43.5C357.014 43.5 357.398 43.65 357.731 43.95C358.098 44.2167 358.281 44.6333 358.281 45.2C358.848 44.6333 359.581 44.1667 360.481 43.8C361.381 43.4333 362.231 43.25 363.031 43.25C364.898 43.25 366.381 43.85 367.481 45.05C368.581 46.25 369.131 48.0167 369.131 50.35V56.95C369.131 57.45 368.948 57.8333 368.581 58.1C368.214 58.3667 367.831 58.5 367.431 58.5ZM379.648 58.5C378.182 58.5 376.848 58.1667 375.648 57.5C374.482 56.8333 373.565 55.9167 372.898 54.75C372.232 53.55 371.898 52.2167 371.898 50.75C371.898 49.3167 372.232 48.0333 372.898 46.9C373.565 45.7667 374.482 44.8833 375.648 44.25C376.848 43.5833 378.182 43.25 379.648 43.25C381.115 43.25 382.432 43.5833 383.598 44.25C384.765 44.8833 385.682 45.7667 386.348 46.9C387.048 48.0333 387.398 49.3167 387.398 50.75C387.398 52.2167 387.048 53.55 386.348 54.75C385.682 55.9167 384.765 56.8333 383.598 57.5C382.432 58.1667 381.115 58.5 379.648 58.5ZM379.648 55.4C380.948 55.4 381.998 54.9833 382.798 54.15C383.598 53.2833 383.998 52.15 383.998 50.75C383.998 49.4167 383.598 48.35 382.798 47.55C381.998 46.75 380.948 46.35 379.648 46.35C378.315 46.35 377.248 46.75 376.448 47.55C375.682 48.35 375.298 49.4167 375.298 50.75C375.298 52.15 375.682 53.2833 376.448 54.15C377.248 54.9833 378.315 55.4 379.648 55.4ZM392.079 58.5C391.646 58.5 391.246 58.3667 390.879 58.1C390.546 57.8333 390.379 57.45 390.379 56.95V45.2C390.379 44.6333 390.546 44.2167 390.879 43.95C391.246 43.65 391.646 43.5 392.079 43.5C392.412 43.5 392.729 43.5833 393.029 43.75C393.329 43.8833 393.546 44.1333 393.679 44.5C393.746 44.7 393.779 44.8833 393.779 45.05C394.279 44.5167 394.929 44.0833 395.729 43.75C396.529 43.4167 397.312 43.25 398.079 43.25C400.246 43.25 401.846 44.1167 402.879 45.85C403.279 45.15 403.929 44.55 404.829 44.05C405.762 43.5167 406.896 43.25 408.229 43.25C410.029 43.25 411.462 43.85 412.529 45.05C413.596 46.25 414.129 48.0167 414.129 50.35V56.95C414.129 57.45 413.946 57.8333 413.579 58.1C413.212 58.3667 412.829 58.5 412.429 58.5C411.996 58.5 411.596 58.3667 411.229 58.1C410.896 57.8333 410.729 57.45 410.729 56.95V50.65C410.729 47.7833 409.662 46.35 407.529 46.35C406.329 46.35 405.462 46.6667 404.929 47.3C404.396 47.9333 404.062 48.6833 403.929 49.55V56.95C403.929 57.45 403.746 57.8333 403.379 58.1C403.012 58.3667 402.629 58.5 402.229 58.5C401.796 58.5 401.396 58.3667 401.029 58.1C400.696 57.8333 400.529 57.45 400.529 56.95V50.65C400.529 49.1833 400.246 48.1 399.679 47.4C399.112 46.7 398.346 46.35 397.379 46.35C395.946 46.35 394.979 46.8 394.479 47.7C394.012 48.5667 393.779 49.5333 393.779 50.6V56.95C393.779 57.45 393.596 57.8333 393.229 58.1C392.896 58.3667 392.512 58.5 392.079 58.5ZM425.669 58.5C424.736 58.5 423.902 58.3333 423.169 58C422.436 57.7 421.802 57.2833 421.269 56.75V56.95C421.269 57.45 421.086 57.8333 420.719 58.1C420.386 58.3667 420.002 58.5 419.569 58.5C419.136 58.5 418.736 58.3667 418.369 58.1C418.036 57.8333 417.869 57.45 417.869 56.95V37.95C417.869 37.3833 418.036 36.9667 418.369 36.7C418.736 36.4 419.136 36.25 419.569 36.25C420.002 36.25 420.386 36.4 420.719 36.7C421.086 36.9667 421.269 37.3833 421.269 37.95V44.95C421.802 44.4167 422.436 44 423.169 43.7C423.902 43.4 424.736 43.25 425.669 43.25C427.136 43.25 428.419 43.5833 429.519 44.25C430.652 44.8833 431.536 45.7667 432.169 46.9C432.802 48.0333 433.119 49.3167 433.119 50.75C433.119 52.2167 432.802 53.55 432.169 54.75C431.536 55.9167 430.652 56.8333 429.519 57.5C428.419 58.1667 427.136 58.5 425.669 58.5ZM425.369 55.4C426.669 55.4 427.719 54.9833 428.519 54.15C429.319 53.2833 429.719 52.15 429.719 50.75C429.719 49.4167 429.319 48.35 428.519 47.55C427.719 46.75 426.669 46.35 425.369 46.35C424.102 46.35 423.102 46.75 422.369 47.55C421.636 48.35 421.269 49.4167 421.269 50.75C421.269 52.15 421.636 53.2833 422.369 54.15C423.102 54.9833 424.102 55.4 425.369 55.4ZM439.531 50.6V56.95C439.531 57.45 439.348 57.8333 438.981 58.1C438.648 58.3667 438.264 58.5 437.831 58.5C437.398 58.5 436.998 58.3667 436.631 58.1C436.298 57.8333 436.131 57.45 436.131 56.95V45.2C436.131 44.6333 436.298 44.2167 436.631 43.95C436.998 43.65 437.398 43.5 437.831 43.5C438.264 43.5 438.648 43.65 438.981 43.95C439.348 44.2167 439.531 44.6333 439.531 45.2V45.4C439.998 44.7667 440.598 44.25 441.331 43.85C442.098 43.45 442.898 43.25 443.731 43.25C444.131 43.25 444.531 43.3 444.931 43.4C445.331 43.5 445.631 43.7 445.831 44C446.031 44.3 446.131 44.6333 446.131 45C446.131 45.4333 445.981 45.8333 445.681 46.2C445.414 46.5333 445.014 46.7 444.481 46.7C444.248 46.7 443.998 46.6667 443.731 46.6C443.498 46.5333 443.198 46.5 442.831 46.5C441.864 46.5 441.064 46.8667 440.431 47.6C439.831 48.3333 439.531 49.3333 439.531 50.6ZM454.848 58.5C452.348 58.5 450.398 57.7833 448.998 56.35C447.598 54.9167 446.898 52.9833 446.898 50.55C446.898 48.4167 447.598 46.6667 448.998 45.3C450.432 43.9333 452.265 43.25 454.498 43.25C456.665 43.25 458.398 43.8833 459.698 45.15C460.998 46.3833 461.648 47.9167 461.648 49.75C461.648 50.4833 461.448 51.0333 461.048 51.4C460.682 51.7667 460.198 51.95 459.598 51.95H450.898C450.565 51.95 450.448 52.1333 450.548 52.5C450.815 53.4333 451.348 54.1667 452.148 54.7C452.982 55.2 453.915 55.45 454.948 55.45C455.715 55.45 456.448 55.35 457.148 55.15C457.882 54.95 458.515 54.65 459.048 54.25C459.215 54.1167 459.432 54.05 459.698 54.05C460.065 54.05 460.398 54.2167 460.698 54.55C460.998 54.85 461.148 55.2167 461.148 55.65C461.148 55.85 461.115 56.05 461.048 56.25C460.982 56.45 460.832 56.65 460.598 56.85C459.732 57.4833 458.798 57.9167 457.798 58.15C456.832 58.3833 455.848 58.5 454.848 58.5ZM457.748 49.35C457.948 49.35 458.048 49.25 458.048 49.05C458.048 48.2833 457.698 47.6167 456.998 47.05C456.332 46.4833 455.498 46.2 454.498 46.2C453.632 46.2 452.798 46.4333 451.998 46.9C451.232 47.3667 450.765 47.9833 450.598 48.75C450.598 48.75 450.598 48.7667 450.598 48.8C450.565 48.9333 450.548 49.05 450.548 49.15C450.582 49.25 450.732 49.3 450.998 49.3L457.748 49.35Z" fill="black" fill-opacity="0.35"/>
<defs>
<filter id="filter0_d_59_165" x="0" y="0" width="538" height="105" filterUnits="userSpaceOnUse" color-interpolation-filters="sRGB">
<feFlood flood-opacity="0" result="BackgroundImageFix"/>
<feColorMatrix in="SourceAlpha" type="matrix" values="0 0 0 0 0 0 0 0 0 0 0 0 0 0 0 0 0 0 127 0" result="hardAlpha"/>
<feOffset dy="2"/>
<feGaussianBlur stdDeviation="8"/>
<feComposite in2="hardAlpha" operator="out"/>
<feColorMatrix type="matrix" values="0 0 0 0 0 0 0 0 0 0.0352941 0 0 0 0 0.501961 0 0 0 0.25 0"/>
<feBlend mode="normal" in2="BackgroundImageFix" result="effect1_dropShadow_59_165"/>
<feBlend mode="normal" in="SourceGraphic" in2="effect1_dropShadow_59_165" result="shape"/>
</filter>
</defs>
</svg>
