<svg width="507" height="265" viewBox="0 0 507 265" fill="none" xmlns="http://www.w3.org/2000/svg">
<rect y="61" width="507" height="204" rx="20" fill="#F95A61"/>
<rect x="17" y="77" width="193" height="176" rx="8" fill="white"/>
<path d="M108.505 217.53C106.312 217.53 104.288 216.771 102.433 215.253C100.578 213.904 99.65 211.88 99.65 209.181V120.884C99.65 118.017 100.578 115.908 102.433 114.559C104.288 113.21 106.312 112.535 108.505 112.535C110.866 112.535 112.89 113.21 114.577 114.559C116.432 115.908 117.36 118.017 117.36 120.884V209.181C117.36 211.88 116.432 213.904 114.577 215.253C112.89 216.771 110.866 217.53 108.505 217.53Z" fill="#F95A61"/>
<path d="M244.409 217.53C242.216 217.53 240.277 216.771 238.59 215.253C236.903 213.735 236.06 211.711 236.06 209.181C236.06 208.338 236.229 207.241 236.566 205.892L268.191 120.125C269.372 117.258 271.143 115.065 273.504 113.547C275.865 112.029 278.395 111.27 281.094 111.27C283.793 111.27 286.323 112.029 288.684 113.547C291.214 115.065 293.069 117.258 294.25 120.125L327.899 205.892C328.236 207.241 328.405 208.338 328.405 209.181C328.405 211.711 327.562 213.735 325.875 215.253C324.188 216.771 322.249 217.53 320.056 217.53C318.538 217.53 316.936 217.108 315.249 216.265C313.731 215.59 312.55 214.41 311.707 212.723L303.358 190.459C303.189 189.447 302.515 188.941 301.334 188.941H262.625C261.444 188.941 260.685 189.447 260.348 190.459L252.758 212.723C251.915 214.41 250.65 215.59 248.963 216.265C247.445 217.108 245.927 217.53 244.409 217.53ZM270.215 173.761H292.985C293.997 173.761 294.756 173.424 295.262 172.749C295.937 171.906 296.105 170.894 295.768 169.713L283.624 135.052C283.118 133.365 282.359 132.522 281.347 132.522C280.166 132.522 279.323 133.365 278.817 135.052L267.432 169.966C267.095 170.978 267.179 171.906 267.685 172.749C268.36 173.424 269.203 173.761 270.215 173.761ZM352.256 217.53C350.064 217.53 348.04 216.855 346.184 215.506C344.498 214.157 343.654 212.217 343.654 209.687V150.232C343.654 147.365 344.498 145.256 346.184 143.907C348.04 142.389 350.064 141.63 352.256 141.63C353.943 141.63 355.545 142.052 357.063 142.895C358.581 143.57 359.678 144.835 360.352 146.69C360.69 147.702 360.858 148.63 360.858 149.473C363.388 146.774 366.677 144.582 370.725 142.895C374.773 141.208 378.737 140.365 382.616 140.365C393.58 140.365 401.676 144.75 406.904 153.521C408.928 149.979 412.217 146.943 416.771 144.413C421.494 141.714 427.229 140.365 433.975 140.365C443.083 140.365 450.336 143.401 455.733 149.473C461.131 155.545 463.829 164.484 463.829 176.291V209.687C463.829 212.217 462.902 214.157 461.046 215.506C459.191 216.855 457.251 217.53 455.227 217.53C453.035 217.53 451.011 216.855 449.155 215.506C447.469 214.157 446.625 212.217 446.625 209.687V177.809C446.625 163.304 441.228 156.051 430.433 156.051C424.361 156.051 419.976 157.653 417.277 160.858C414.579 164.063 412.892 167.858 412.217 172.243V209.687C412.217 212.217 411.29 214.157 409.434 215.506C407.579 216.855 405.639 217.53 403.615 217.53C401.423 217.53 399.399 216.855 397.543 215.506C395.857 214.157 395.013 212.217 395.013 209.687V177.809C395.013 170.388 393.58 164.906 390.712 161.364C387.845 157.822 383.966 156.051 379.074 156.051C371.822 156.051 366.93 158.328 364.4 162.882C362.039 167.267 360.858 172.159 360.858 177.556V209.687C360.858 212.217 359.931 214.157 358.075 215.506C356.389 216.855 354.449 217.53 352.256 217.53Z" fill="white"/>
</svg>
