<svg width="381" height="314" viewBox="0 0 381 314" fill="none" xmlns="http://www.w3.org/2000/svg">
<path d="M189.122 309.676H185.065L183.135 293.038L189.122 293.039L189.122 309.676Z" fill="#FFB8B8"/>
<path d="M190.156 313.858L177.076 313.857V313.681C177.076 312.97 177.208 312.266 177.464 311.609C177.72 310.953 178.095 310.356 178.568 309.853C179.04 309.35 179.602 308.952 180.219 308.68C180.837 308.408 181.499 308.268 182.167 308.268H182.168L190.157 308.268L190.156 313.858Z" fill="#2F2E41"/>
<path d="M234.437 305.64L230.614 307.08L223.571 292.082L229.215 289.957L234.437 305.64Z" fill="#FFB8B8"/>
<path d="M236.726 309.215L224.396 313.858L224.341 313.692C224.118 313.022 224.021 312.312 224.056 311.602C224.091 310.892 224.257 310.196 224.545 309.554C224.832 308.913 225.236 308.338 225.733 307.862C226.23 307.386 226.81 307.019 227.44 306.782L227.44 306.782L234.971 303.946L236.726 309.215Z" fill="#2F2E41"/>
<path d="M189.009 304.09C188.918 304.09 188.827 304.081 188.737 304.064L183.777 303.105C183.439 303.038 183.133 302.85 182.911 302.572C182.688 302.295 182.562 301.944 182.554 301.579C181.832 266.073 185.377 242.212 193.09 225.11C193.227 224.807 193.452 224.559 193.731 224.402C194.01 224.245 194.33 224.187 194.642 224.237L212.48 226.976C212.806 227.026 213.107 227.189 213.336 227.441C213.565 227.692 213.71 228.017 213.747 228.364L215.32 243.108C215.328 243.187 215.344 243.266 215.367 243.342L232.47 297.832C232.586 298.229 232.552 298.658 232.375 299.028C232.198 299.398 231.891 299.68 231.521 299.813L226.899 301.452C226.559 301.57 226.19 301.556 225.86 301.41C225.529 301.264 225.258 300.997 225.097 300.658L201.962 254.271C201.916 254.174 201.843 254.094 201.753 254.042C201.662 253.991 201.559 253.97 201.457 253.984C201.355 253.997 201.26 254.044 201.184 254.118C201.108 254.191 201.055 254.288 201.033 254.394L190.458 302.845C190.387 303.198 190.204 303.513 189.94 303.74C189.677 303.966 189.348 304.09 189.009 304.09Z" fill="#2F2E41"/>
<path d="M174.911 196.354C174.951 196.544 174.978 196.737 174.99 196.931L189.204 205.65L192.659 203.535L196.342 208.663L190.568 213.039C190.101 213.392 189.54 213.575 188.967 213.561C188.394 213.546 187.842 213.334 187.392 212.956L172.735 200.661C172.074 200.921 171.353 200.961 170.67 200.776C169.986 200.59 169.372 200.188 168.909 199.622C168.446 199.056 168.156 198.354 168.078 197.609C167.999 196.863 168.136 196.11 168.47 195.449C168.803 194.789 169.318 194.252 169.946 193.91C170.574 193.568 171.285 193.438 171.984 193.536C172.683 193.634 173.338 193.956 173.861 194.459C174.383 194.963 174.75 195.624 174.911 196.354Z" fill="#FFB8B8"/>
<path d="M189.399 204.779C189.442 204.556 189.529 204.346 189.656 204.162C189.782 203.978 189.944 203.826 190.131 203.715L196.653 199.836C197.52 199.125 198.617 198.808 199.703 198.955C200.788 199.102 201.775 199.701 202.447 200.621C203.118 201.54 203.419 202.705 203.284 203.861C203.148 205.016 202.588 206.067 201.725 206.783L196.524 212.526C196.376 212.69 196.196 212.818 195.997 212.901C195.798 212.984 195.584 213.021 195.37 213.008C195.157 212.996 194.948 212.935 194.759 212.829C194.569 212.723 194.404 212.575 194.273 212.395L189.679 206.064C189.548 205.883 189.455 205.675 189.407 205.454C189.359 205.232 189.356 205.002 189.399 204.779Z" fill="#F95A61"/>
<path d="M204.588 195.485C209.077 195.485 212.715 191.616 212.715 186.843C212.715 182.07 209.077 178.201 204.588 178.201C200.1 178.201 196.462 182.07 196.462 186.843C196.462 191.616 200.1 195.485 204.588 195.485Z" fill="#FFB8B8"/>
<path d="M212.502 228.819C212.421 228.819 212.34 228.812 212.261 228.798L194.673 225.732C194.475 225.698 194.285 225.621 194.115 225.506C193.945 225.391 193.799 225.24 193.685 225.063C193.572 224.887 193.493 224.687 193.454 224.477C193.415 224.267 193.416 224.051 193.458 223.841L194.313 219.552C193.875 218.857 190.309 212.816 194.653 207.141C194.569 205.125 195.229 203.154 196.492 201.648C197.755 200.141 199.521 199.219 201.414 199.076L210.503 198.342C211.672 198.247 212.845 198.453 213.924 198.941C215.003 199.43 215.956 200.187 216.703 201.148C217.449 202.11 217.968 203.248 218.214 204.467C218.461 205.686 218.429 206.95 218.12 208.153L213.953 227.588C213.878 227.937 213.693 228.249 213.43 228.473C213.166 228.696 212.839 228.819 212.502 228.819Z" fill="#F95A61"/>
<path d="M228.925 245.071C229.224 244.619 229.425 244.102 229.515 243.558C229.606 243.014 229.582 242.455 229.448 241.922C229.313 241.388 229.07 240.892 228.736 240.469C228.401 240.046 227.984 239.706 227.512 239.473L217.499 206.735L211.696 209.663L222.652 241.54C222.337 242.408 222.332 243.369 222.638 244.24C222.944 245.112 223.541 245.833 224.314 246.269C225.087 246.704 225.984 246.822 226.833 246.602C227.683 246.381 228.428 245.836 228.925 245.071Z" fill="#FFB8B8"/>
<path d="M219.714 212.186L212.008 214.661C211.789 214.732 211.558 214.751 211.331 214.718C211.104 214.685 210.886 214.6 210.693 214.47C210.5 214.339 210.335 214.166 210.21 213.962C210.086 213.757 210.004 213.527 209.97 213.286L208.801 204.843C208.469 203.649 208.596 202.363 209.154 201.268C209.712 200.173 210.656 199.358 211.778 199.001C212.9 198.644 214.11 198.775 215.142 199.365C216.173 199.955 216.943 200.955 217.282 202.148L220.695 209.841C220.792 210.061 220.844 210.301 220.846 210.545C220.849 210.788 220.802 211.03 220.709 211.252C220.616 211.475 220.479 211.673 220.307 211.834C220.135 211.996 219.933 212.115 219.714 212.186Z" fill="#F95A61"/>
<path d="M196.689 187.177C198.493 187.908 200.457 188.072 202.346 187.651C204.236 187.229 205.971 186.238 207.347 184.797C206.494 187.192 206.732 197.349 206.732 197.349C206.732 197.349 214.292 193.532 215.318 192.865C221.375 188.923 213.021 171.774 206.071 174.479C204.894 174.937 203.91 175.476 203.434 176.709C202.396 175.347 200.432 175.052 198.921 175.751C197.41 176.451 196.336 177.966 195.758 179.607C195.302 180.931 195.125 182.346 195.239 183.751C195.353 185.156 195.755 186.517 196.418 187.739L196.689 187.177Z" fill="black"/>
<path d="M304.065 205.645C346.555 205.645 381 159.61 381 102.822C381 46.0351 346.555 0 304.065 0C261.574 0 227.129 46.0351 227.129 102.822C227.129 159.61 261.574 205.645 304.065 205.645Z" fill="#F2F2F2"/>
<path d="M361.294 34.145C377.998 86.365 359.864 146.795 320.791 169.119C290.392 186.487 255.089 175.96 233.097 142.969C249.799 195.191 295.014 219.429 334.088 197.108C373.162 174.786 391.298 114.357 374.596 62.1353C371.452 52.173 366.972 42.7457 361.294 34.145Z" fill="#E6E6E6"/>
<path d="M304.276 81.8101H304.487L308.292 313.755H300.26L304.276 81.8101Z" fill="#CCCCCC"/>
<path d="M316.512 234.079L303.795 241.199L305.567 244.779L318.285 237.659L316.512 234.079Z" fill="#CCCCCC"/>
<path d="M59.4107 229.621C92.2223 229.621 118.821 194.217 118.821 150.545C118.821 106.872 92.2223 71.4683 59.4107 71.4683C26.5991 71.4683 0 106.872 0 150.545C0 194.217 26.5991 229.621 59.4107 229.621Z" fill="#F2F2F2"/>
<path d="M103.604 97.728C116.503 137.888 102.5 184.362 72.327 201.531C48.8523 214.888 21.5908 206.792 4.60828 181.42C17.5057 221.582 52.4217 240.222 82.5953 223.056C112.769 205.889 126.774 159.416 113.876 119.254C111.447 111.589 107.987 104.339 103.604 97.728Z" fill="#E6E6E6"/>
<path d="M59.5739 134.644H59.7369L62.6751 313.755H56.4731L59.5739 134.644Z" fill="#CCCCCC"/>
<path d="M69.0229 254.8L59.2021 260.298L60.5708 263.063L70.3916 257.565L69.0229 254.8Z" fill="#CCCCCC"/>
<path d="M347.864 314H9.6465C9.5315 314 9.42121 313.951 9.33989 313.865C9.25857 313.778 9.21289 313.661 9.21289 313.539C9.21289 313.416 9.25857 313.299 9.33989 313.213C9.42121 313.126 9.5315 313.078 9.6465 313.078H347.864C347.979 313.078 348.089 313.126 348.17 313.213C348.252 313.299 348.297 313.416 348.297 313.539C348.297 313.661 348.252 313.778 348.17 313.865C348.089 313.951 347.979 314 347.864 314Z" fill="#CCCCCC"/>
<path fill-rule="evenodd" clip-rule="evenodd" d="M186.109 80.0461C186.109 78.431 185.673 76.8497 184.854 75.4896C184.035 74.1294 182.867 73.0473 181.487 72.3714C180.108 71.6955 178.575 71.454 177.07 71.6756C175.566 71.8972 174.152 72.5726 172.998 73.6218C171.843 74.6709 170.995 76.05 170.554 77.5957C170.114 79.1414 170.099 80.7889 170.511 82.3434C170.924 83.8978 171.747 85.294 172.882 86.3666C174.018 87.4392 175.419 88.1434 176.919 88.3958V82.49H174.9V80.0461H176.919V78.1837C176.919 76.0658 178.106 74.895 179.921 74.895C180.517 74.9038 181.112 74.959 181.701 75.0602V77.1404H180.698C180.527 77.1163 180.353 77.1335 180.19 77.1905C180.026 77.2475 179.876 77.3429 179.752 77.4697C179.627 77.5965 179.531 77.7515 179.471 77.923C179.41 78.0946 179.387 78.2785 179.402 78.461V80.0465H181.607L181.255 82.4904H179.402V88.3965C181.272 88.0816 182.975 87.0676 184.204 85.5369C185.434 84.0061 186.109 82.0591 186.109 80.0461H186.109Z" fill="#3F3D56"/>
<path d="M149.353 105.154L150.801 104.847C150.355 105.398 149.872 105.912 149.353 106.386C149.332 106.693 149.332 107.002 149.353 107.309C146.574 119.992 136.326 114.389 136.326 114.389C140.061 114.482 140.379 112.85 140.379 112.85C138.208 112.512 137.774 111.003 137.774 111.003C137.969 111.112 138.194 111.141 138.408 111.085C138.622 111.028 138.808 110.889 138.932 110.695C138.295 110.542 137.734 110.141 137.36 109.572C136.985 109.003 136.823 108.306 136.905 107.617C137.323 107.938 137.812 108.139 138.324 108.202C138.063 107.863 135.863 105.062 137.195 103.615C137.195 103.615 138.816 106.694 143.071 106.971L143.361 106.909C143.312 106.687 143.292 106.459 143.303 106.232C143.303 105.375 143.623 104.552 144.193 103.946C144.763 103.34 145.536 103 146.343 103C148.369 103 148.803 104.231 148.803 104.231L150.251 103.307C150.222 103.307 150.077 104.847 149.353 105.154Z" fill="#3F3D56"/>
<path d="M185.04 125.682H178.927C177.793 125.686 176.707 126.166 175.905 127.019C175.103 127.871 174.651 129.027 174.648 130.232V136.732C174.651 137.938 175.103 139.093 175.905 139.946C176.707 140.798 177.793 141.279 178.927 141.282H185.04C186.173 141.279 187.26 140.798 188.062 139.946C188.863 139.093 189.315 137.938 189.319 136.732V130.232C189.315 129.027 188.863 127.871 188.062 127.019C187.26 126.166 186.173 125.686 185.04 125.682Z" fill="#3F3D56"/>
<path d="M185.956 130.232C185.714 130.231 185.482 130.129 185.31 129.946C185.139 129.763 185.043 129.516 185.043 129.258C185.044 129 185.14 128.753 185.312 128.571C185.483 128.388 185.716 128.286 185.958 128.286C186.201 128.286 186.433 128.388 186.605 128.571C186.777 128.753 186.873 129 186.873 129.258C186.874 129.516 186.778 129.763 186.606 129.946C186.435 130.129 186.203 130.231 185.96 130.232H185.956Z" fill="white"/>
<path d="M181.983 130.882C182.467 130.882 182.94 131.034 183.342 131.32C183.744 131.606 184.057 132.012 184.242 132.487C184.427 132.962 184.476 133.485 184.381 133.989C184.287 134.494 184.054 134.957 183.712 135.321C183.37 135.684 182.935 135.932 182.46 136.032C181.986 136.133 181.494 136.081 181.047 135.884C180.601 135.687 180.219 135.354 179.95 134.927C179.681 134.499 179.538 133.996 179.538 133.482C179.538 133.141 179.601 132.802 179.724 132.487C179.847 132.172 180.027 131.885 180.254 131.643C180.481 131.402 180.751 131.211 181.047 131.08C181.344 130.949 181.662 130.882 181.983 130.882ZM181.983 129.582C181.258 129.582 180.549 129.811 179.946 130.239C179.342 130.668 178.872 131.277 178.595 131.99C178.317 132.702 178.245 133.486 178.386 134.243C178.528 134.999 178.877 135.694 179.39 136.24C179.903 136.785 180.556 137.157 181.268 137.307C181.979 137.458 182.717 137.38 183.387 137.085C184.057 136.79 184.63 136.29 185.033 135.649C185.436 135.007 185.651 134.253 185.651 133.482C185.651 132.448 185.264 131.456 184.577 130.724C183.889 129.993 182.956 129.582 181.983 129.582V129.582Z" fill="white"/>
<path d="M161.524 164.179C159.693 164.179 157.918 164.849 156.497 166.077C155.076 167.304 154.096 169.014 153.72 170.92C153.345 172.825 153.598 174.81 154.436 176.541C155.274 178.271 156.647 179.643 158.324 180.424C158.291 179.772 158.337 179.118 158.463 178.479C158.616 177.79 159.488 173.857 159.488 173.857C159.314 173.435 159.227 172.978 159.232 172.517C159.232 171.261 159.915 170.322 160.769 170.322C160.922 170.32 161.073 170.352 161.213 170.417C161.352 170.482 161.477 170.577 161.579 170.698C161.681 170.818 161.757 170.961 161.803 171.115C161.849 171.27 161.863 171.433 161.844 171.594C161.844 172.37 161.378 173.528 161.14 174.603C161.092 174.802 161.089 175.01 161.131 175.211C161.173 175.411 161.259 175.598 161.382 175.757C161.504 175.916 161.66 176.042 161.837 176.125C162.014 176.208 162.207 176.245 162.4 176.234C163.909 176.234 164.927 174.171 164.927 171.726C164.927 169.868 163.749 168.479 161.609 168.479C161.097 168.458 160.587 168.547 160.108 168.742C159.63 168.937 159.194 169.234 158.827 169.614C158.46 169.993 158.169 170.449 157.972 170.952C157.776 171.455 157.677 171.995 157.683 172.54C157.66 173.144 157.847 173.736 158.21 174.202C158.274 174.258 158.319 174.334 158.34 174.419C158.36 174.504 158.355 174.593 158.324 174.675C158.285 174.83 158.2 175.205 158.16 175.356C158.154 175.402 158.137 175.445 158.111 175.483C158.085 175.52 158.051 175.55 158.012 175.571C157.973 175.592 157.93 175.602 157.887 175.602C157.843 175.601 157.8 175.59 157.762 175.568C156.648 175.084 156.128 173.789 156.128 172.328C156.128 169.921 158.039 167.033 161.827 167.033C164.87 167.033 166.874 169.376 166.874 171.889C166.874 175.216 165.133 177.699 162.57 177.699C162.189 177.71 161.811 177.619 161.471 177.434C161.131 177.25 160.839 176.978 160.623 176.643C160.623 176.643 160.161 178.596 160.061 178.974C159.877 179.618 159.607 180.229 159.26 180.791C160.357 181.136 161.51 181.225 162.642 181.054C163.774 180.883 164.859 180.455 165.821 179.799C166.784 179.143 167.603 178.274 168.222 177.252C168.842 176.23 169.247 175.078 169.411 173.875C169.575 172.672 169.494 171.445 169.173 170.278C168.852 169.111 168.298 168.031 167.55 167.111C166.802 166.192 165.877 165.454 164.837 164.948C163.797 164.442 162.667 164.18 161.524 164.179L161.524 164.179Z" fill="#3F3D56"/>
<path d="M178.161 95.212C175.331 95.212 172.564 94.3196 170.211 92.6477C167.858 90.9758 166.024 88.5994 164.941 85.819C163.858 83.0387 163.575 79.9793 164.127 77.0277C164.679 74.0761 166.042 71.3649 168.043 69.2369C170.044 67.1089 172.594 65.6598 175.369 65.0727C178.145 64.4855 181.022 64.7869 183.637 65.9385C186.251 67.0902 188.486 69.0404 190.058 71.5427C191.631 74.0449 192.47 76.9867 192.47 79.9961C192.466 84.0302 190.957 87.8978 188.274 90.7503C185.592 93.6029 181.955 95.2074 178.161 95.212ZM178.161 65.7025C175.502 65.7024 172.903 66.5407 170.693 68.1114C168.482 69.682 166.76 71.9143 165.742 74.5261C164.725 77.138 164.459 80.012 164.977 82.7847C165.496 85.5574 166.776 88.1043 168.656 90.1033C170.536 92.1023 172.931 93.4636 175.538 94.0152C178.146 94.5667 180.849 94.2837 183.305 93.2018C185.761 92.1199 187.86 90.2879 189.337 87.9373C190.814 85.5867 191.603 82.8232 191.603 79.9961C191.599 76.2065 190.181 72.5734 187.661 69.8937C185.141 67.2141 181.725 65.7068 178.161 65.7025Z" fill="#3F3D56"/>
<path d="M143.564 124.527C140.734 124.527 137.967 123.635 135.614 121.963C133.261 120.291 131.427 117.914 130.344 115.134C129.261 112.354 128.977 109.294 129.529 106.343C130.081 103.391 131.444 100.68 133.445 98.5518C135.447 96.4239 137.996 94.9747 140.772 94.3876C143.548 93.8005 146.425 94.1018 149.039 95.2535C151.654 96.4051 153.889 98.3554 155.461 100.858C157.034 103.36 157.873 106.302 157.873 109.311C157.869 113.345 156.36 117.213 153.677 120.065C150.994 122.918 147.357 124.522 143.564 124.527ZM143.564 95.0174C140.905 95.0174 138.306 95.8557 136.096 97.4263C133.885 98.9969 132.162 101.229 131.145 103.841C130.127 106.453 129.861 109.327 130.38 112.1C130.899 114.872 132.179 117.419 134.059 119.418C135.939 121.417 138.334 122.779 140.941 123.33C143.549 123.882 146.251 123.599 148.708 122.517C151.164 121.435 153.263 119.603 154.74 117.252C156.217 114.902 157.006 112.138 157.006 109.311C157.002 105.521 155.584 101.888 153.064 99.2087C150.544 96.529 147.127 95.0217 143.564 95.0174Z" fill="#3F3D56"/>
<path d="M181.983 148.698C179.153 148.698 176.387 147.805 174.034 146.134C171.68 144.462 169.846 142.085 168.763 139.305C167.68 136.525 167.397 133.465 167.949 130.514C168.501 127.562 169.864 124.851 171.865 122.723C173.866 120.595 176.416 119.146 179.192 118.558C181.967 117.971 184.844 118.273 187.459 119.424C190.074 120.576 192.309 122.526 193.881 125.028C195.453 127.531 196.292 130.473 196.292 133.482C196.288 137.516 194.779 141.384 192.097 144.236C189.414 147.089 185.777 148.693 181.983 148.698ZM181.983 119.188C179.325 119.188 176.726 120.027 174.515 121.597C172.305 123.168 170.582 125.4 169.565 128.012C168.547 130.624 168.281 133.498 168.8 136.271C169.318 139.043 170.598 141.59 172.478 143.589C174.358 145.588 176.753 146.95 179.361 147.501C181.968 148.053 184.671 147.769 187.127 146.688C189.583 145.606 191.683 143.774 193.16 141.423C194.637 139.073 195.425 136.309 195.425 133.482C195.421 129.692 194.004 126.059 191.484 123.38C188.964 120.7 185.547 119.193 181.983 119.188Z" fill="#3F3D56"/>
<path d="M161.523 187.876C158.693 187.876 155.927 186.984 153.574 185.312C151.22 183.64 149.386 181.263 148.303 178.483C147.22 175.703 146.937 172.643 147.489 169.692C148.041 166.74 149.404 164.029 151.405 161.901C153.406 159.773 155.956 158.324 158.732 157.737C161.507 157.15 164.385 157.451 166.999 158.603C169.614 159.754 171.849 161.704 173.421 164.207C174.993 166.709 175.833 169.651 175.833 172.66C175.828 176.694 174.319 180.562 171.637 183.414C168.954 186.267 165.317 187.871 161.523 187.876ZM161.523 158.367C158.865 158.367 156.266 159.205 154.055 160.775C151.845 162.346 150.122 164.578 149.105 167.19C148.087 169.802 147.821 172.676 148.34 175.449C148.858 178.221 150.139 180.768 152.018 182.767C153.898 184.766 156.293 186.128 158.901 186.679C161.508 187.231 164.211 186.948 166.667 185.866C169.124 184.784 171.223 182.952 172.7 180.601C174.177 178.251 174.965 175.487 174.965 172.66C174.961 168.871 173.544 165.237 171.024 162.558C168.504 159.878 165.087 158.371 161.523 158.367Z" fill="#3F3D56"/>
</svg>
